<ttFont>
          <CharString index="0">
            rmoveto
            -3 -41 -54 -31 -11 48 rrcurveto
            26 -6 8 36 33 hhcurveto
            17 19 -17 -21 -3 hvcurveto
            return
          </CharString>
          <CharString index="1">
            12 -20 45 140 -781 callsubr
            108 return
          </CharString>
          <CharString index="2">
            -184 callgsubr
            45 callgsubr
            return
          </CharString>
          <CharString index="3">
            -11 -8 -7 -14 -4 -20 -1 -53 40 -26 79 -1 rrcurveto
            27 24 7 13 22 hvcurveto
            31 19 17 29 3 40 rrcurveto
            -219 88 rmoveto
            5 3 3 4 3 3 489 callsubr
            31 callsubr
            return
          </CharString>
          <CharString index="4">
            -707 callsubr
            -4 -24 -264 callgsubr
            4 31 40 51 hhcurveto
            33 27 17 35 21 hvcurveto
            -25 11 66 -23 31 hhcurveto
            304 callsubr
            28 hvcurveto
            return
          </CharString>
          <CharString index="5">
            -852 callsubr
            83 -702 callgsubr
            153 114 90 141 5 hvcurveto
            return
          </CharString>
          <CharString index="6">
            553 328 rmoveto
            33 -2 31 -5 29 vhcurveto
            170 hlineto
            34 20 -28 -57 6 hvcurveto
            -60 9 -56 -10 -36 -31 rrcurveto
            -85 -93 50 -164 127 hhcurveto
            107 81 87 139 8 hvcurveto
            5 55 -10 48 -24 39 rrcurveto
            46 -26 -40 23 -54 hhcurveto
            -226 hlineto
            -19 53 -29 38 -40 24 -777 callsubr
            -24 -21 -4 -4 hhcurveto
            -5 -60 rlineto
            7 19 20 4 19 hhcurveto
            51 34 -29 -58 19 hvcurveto
            -369 hlineto
            -7 -71 rlineto
            204 hlineto
            15 16 4 -24 3 hvcurveto
            -34 -34 8 -22 vhcurveto
            -95 1 -4 -48 179 -1 rlineto
            46 38 54 40 -28 hvcurveto
            72 hlineto
            1 -17 1 -19 -20 69 callsubr
            return
          </CharString>
          <CharString index="7">
            -56 callsubr
            -20 -5 -17 -13 -15 -19 -18 -21 -10 -26 -2 -30 rrcurveto
            111 callgsubr
            58 25 27 26 34 hvcurveto
            27 -39 32 -15 36 1 53 1 40 14 36 41 649 callsubr
            -35 24 -42 12 -51 1 rrcurveto
            -2 hlineto
            25 24 -590 callgsubr
            rlinecurve
            -110 callgsubr
            17 19 -4 -7 20 hvcurveto
            -7 5 -13 19 -17 32 624 callgsubr
            727 callgsubr
            1 -9 -630 callgsubr
            -20 -39 -11 -319 callsubr
            3 28 8 56 vhcurveto
            196 return
          </CharString>
          <CharString index="8">
            106 512 callgsubr
            -12 -164 -72 hvcurveto
            -608 callgsubr
            vvcurveto
            96 18 80 -141 -91 -71 -69 -100 -11 vhcurveto
            -31 11 -109 18 -21 vhcurveto
            127 1 -31 31 -17 86 8 42 rlinecurve
            21 16 79 32 vhcurveto
            55 3 -28 -99 -5 -27 rrcurveto
            return
          </CharString>
          <CharString index="9">
            28 callsubr
            -104 return
          </CharString>
          <CharString index="10">
            hlineto
            hintmask 1100100111100000
            -9 -9 0 -1 -9 hvcurveto
            -14 -803 callsubr
            hintmask 1100110001100000
            -1063 callgsubr
            -438 -143 -976 callgsubr
            hintmask 1001101011100000
            5 48 rlineto
            -102 -69 callgsubr
            121 36 -81 -107 -11 hvcurveto
            -25 -252 -104 callsubr
            return
          </CharString>
          <CharString index="11">
            51 -14 -47 26 -80 hhcurveto
            -99 -64 -60 -92 -5 hvcurveto
            125 hlineto
            -5 -343 callsubr
            1 11 4 11 7 8 rrcurveto
            13 10 12 6 15 564 callgsubr
            -25 466 callgsubr
            -23 -17 -33 461 callsubr
            10 9 42 44 hvcurveto
            38 -39 10 -13 55 1 rrcurveto
            105 57 50 99 7 hvcurveto
            return
          </CharString>
          <CharString index="12">
            29 -532 callsubr
            -36 -16 -32 -21 hvcurveto
            return
          </CharString>
          <CharString index="13">
            rmoveto
            -26 -5 -651 callgsubr
            -18 hhcurveto
            -28 -11 18 -436 callsubr
            -25 -48 hvcurveto
            return
          </CharString>
          <CharString index="14">
            51 -13 -48 26 -81 hhcurveto
            -96 -66 -60 -92 -5 -842 callgsubr
            9 13 6 15 hhcurveto
            -873 callgsubr
            -23 -16 -33 -5 -41 rrcurveto
            -103 -8 161 callgsubr
            64 8 10 41 46 hvcurveto
            -40 35 13 -11 53 hhcurveto
            107 57 50 99 7 hvcurveto
            return
          </CharString>
          <CharString index="15">
            rrcurveto
            78 7 -38 39 -83 hhcurveto
            -52 -44 -26 -52 -36 hvcurveto
            -29 -45 -17 -53 -4 -61 return
          </CharString>
          <CharString index="16">
            5 -12 -1086 callgsubr
            return
          </CharString>
          <CharString index="17">
            31 -15 43 hhcurveto
            -340 callgsubr
            return
          </CharString>
          <CharString index="18">
            560 243 rmoveto
            6 86 -24 62 -53 38 11 7 759 callgsubr
            9 17 18 10 26 2 35 5 76 -32 31 -48 4 rrcurveto
            24 -16 -5 56 48 hhcurveto
            19 16 -11 -21 14 hvcurveto
            6 68 rlineto
            17 -25 -25 9 -25 hhcurveto
            -69 -35 -30 -60 -3 hvcurveto
            -3 -21 5 -18 8 683 callsubr
            339 hlineto
            34 16 -18 -35 -2 hvcurveto
            -29 -3 -17 -14 -33 hhcurveto
            -66 hlineto
            -7 -6 0 -1 -7 hvcurveto
            1 -7 -8 0 -7 -43 callsubr
            rrcurveto
            -109 -27 35 callsubr
            return
          </CharString>
          <CharString index="19">
            rmoveto
            -10 -69 -87 -10 10 79 8 74 93 -9 -14 726 callsubr
          </CharString>
          <CharString index="20">
            -2 -33 11 -25 23 -18 -34 -31 -32 -64 -5 -57 rrcurveto
            -88 -3 52 -115 99 hhcurveto
            23 24 8 16 23 hvcurveto
            17 11 11 11 6 13 3 -11 8 -12 15 -12 rrcurveto
            -15 17 23 -7 29 hhcurveto
            53 44 24 49 36 hvcurveto
            37 47 20 57 5 65 rrcurveto
            -108 10 rmoveto
            -5 -63 -11 -46 -19 -31 rrcurveto
            -24 -15 -17 -12 -19 hhcurveto
            -27 -11 24 48 5 hvcurveto
            return
          </CharString>
          <CharString index="21">
            276 525 159 callgsubr
            39 -18 vhcurveto
            6 -3 6 -2 7 -1 rrcurveto
            -1 5 6 -1 7 hhcurveto
            -1 2 2 0 3 hhcurveto
            65 -8 11 -106 -6 -52 -3 -48 -8 -39 77 callgsubr
            return
          </CharString>
          <CharString index="22">
            -6 21 -2 24 2 27 rrcurveto
            -135 hlineto
            -3 -55 12 -41 26 548 callsubr
            return
          </CharString>
          <CharString index="23">
            31 -17 -35 15 -55 hhcurveto
            -76 -687 callgsubr
            114 -162 callgsubr
            return
          </CharString>
          <CharString index="24">
            735 callsubr
            -17 1 -17 4 -17 9 -17 733 callgsubr
            -3 9 rrcurveto
            return
          </CharString>
          <CharString index="25">
            -975 callgsubr
            -1 return
          </CharString>
          <CharString index="26">
            rmoveto
            -1040 callgsubr
            return
          </CharString>
          <CharString index="27">
            -1130 callgsubr
            -17 -15 -852 callsubr
            return
          </CharString>
          <CharString index="28">
            hhcurveto
            -29 -15 92 callgsubr
            8 return
          </CharString>
          <CharString index="29">
            -55 -1 -16 -27 -29 hhcurveto
            -28 -12 -108 callsubr
            18 30 31 hhcurveto
            23 7 -472 callsubr
          </CharString>
          <CharString index="30">
            44 3 19 22 33 hhcurveto
            27 28 714 callgsubr
            return
          </CharString>
          <CharString index="31">
            4 48 rlineto
            -101 hlineto
            -5 -45 rlineto
            60 callsubr
            61 73 104 hhcurveto
            124 29 -81 -107 -5 hvcurveto
            -27 -252 -302 callgsubr
            -87 42 75 -8 79 callsubr
            return
          </CharString>
          <CharString index="32">
            -73 -7 -24 -37 -43 hhcurveto
            -19 -15 10 20 -10 hvcurveto
            -9 18 -3 22 3 26 rrcurveto
            23 9 24 16 27 vhcurveto
            19 31 19 19 21 5 5 1 rcurveline
            29 -27 13 -38 -4 -51 rrcurveto
            return
          </CharString>
          <CharString index="33">
            -3 -3 -13 -11 -21 -20 -11 19 -8 12 -7 3 rrcurveto
            15 -21 -32 8 -43 hhcurveto
            -100 -53 -46 784 callsubr
            -3 -43 15 -28 35 -15 -39 780 callgsubr
            -3 -40 -3 -53 14 -39 31 -25 rrcurveto
            -21 24 33 -10 43 hhcurveto
            43 -540 callgsubr
            5 228 callgsubr
            209 callgsubr
            -14 -15 7 13 -16 755 callsubr
            -7 15 1 18 rrcurveto
            return
          </CharString>
          <CharString index="34">
            911 404 rmoveto
            4 56 -7 45 -17 35 rrcurveto
            45 -23 -38 23 -55 hhcurveto
            -620 hlineto
            -6 -75 rlineto
            220 hlineto
            21 18 -2 -24 3 331 callgsubr
            -96 -87 -173 -13 hvcurveto
            11 callgsubr
            6 86 -24 62 -54 38 8 10 rcurveline
            17 24 1 35 -20 35 rrcurveto
            239 303 callgsubr
            -46 -1 hvcurveto
            -87 46 -89 -64 -8 -78 -29 -200 180 -19 92 108 32 40 13 54 3 53 rrcurveto
            -438 -188 -976 callgsubr
            return
          </CharString>
          <CharString index="35">
            3 33 rlineto
            -94 -982 callsubr
            -3 -24 -40 -27 hhcurveto
            -35 -14 29 59 5 hvcurveto
            70 4 27 35 51 hhcurveto
            30 hlineto
            5 -776 callgsubr
            116 hlineto
            return
          </CharString>
          <CharString index="36">
            -992 callgsubr
            42 249 callgsubr
            59 23 28 55 69 vvcurveto
            -198 -295 -439 callgsubr
            return
          </CharString>
          <CharString index="37">
            -501 callgsubr
            -6 -70 -1035 callsubr
            return
          </CharString>
          <CharString index="38">
            -741 callgsubr
            -3 -45 13 -31 27 -17 4 -3 4 -2 5 -2 -7 -5 -6 -6 -7 -6 -46 -854 callsubr
            154 108 90 141 10 hvcurveto
            155 11 -80 78 -170 hhcurveto
            -4 hlineto
            -7 hlineto
            -7 -7 231 callgsubr
            -32 -311 callgsubr
            56 -503 callsubr
            hintmask 11010011
            -807 callsubr
            -154 258 -3 20 275 vhcurveto
            -444 -114 rmoveto
            -657 callsubr
            return
          </CharString>
          <CharString index="39">
            208 callgsubr
            24 20 82 callsubr
            59 -51 77 hhcurveto
            92 3 70 -799 callgsubr
            return
          </CharString>
          <CharString index="40">
            hhcurveto
            -13 -11 -1 -2 -9 hvcurveto
            -6 463 callsubr
            -70 -15 -123 -88 -63 -16 72 61 hvcurveto
            59 vlineto
            24 callgsubr
            return
          </CharString>
          <CharString index="41">
            -10 16 13 -12 32 hhcurveto
            47 34 47 33 24 hvcurveto
            -42 40 rlineto
            -19 -16 -18 -13 -23 hhcurveto
            -22 -6 8 8 -14 hvcurveto
            return
          </CharString>
          <CharString index="42">
            -1075 callgsubr
            -16 -894 callsubr
            return
          </CharString>
          <CharString index="43">
            -37 -26 -19 -1107 callsubr
            return
          </CharString>
          <CharString index="44">
            -15 51 789 callsubr
            15 41 37 hvcurveto
            39 43 23 57 5 71 return
          </CharString>
          <CharString index="45">
            -11 -1046 callsubr
            return
          </CharString>
          <CharString index="46">
            -766 callgsubr
            rlineto
            45 3 26 23 47 hhcurveto
            return
          </CharString>
          <CharString index="47">
            rrcurveto
            91 -39 -93 45 668 callsubr
            -6 hvcurveto
            -2 -45 12 -31 27 -17 4 -3 5 -2 5 -3 -20 -16 rcurveline
            -1126 callsubr
            155 11 -79 78 -169 hhcurveto
            -4 hlineto
            -7 hlineto
            -7 -8 231 callgsubr
            -32 -37 4 36 hvcurveto
            -664 callsubr
            77 117 callsubr
            hintmask 11001111
            79 -26 7 -55 -8 -73 rrcurveto
            71 -418 callsubr
            rrcurveto
            -98 65 -74 -101 -110 vvcurveto
            -154 259 -4 20 276 vhcurveto
            -444 447 callsubr
            return
          </CharString>
          <CharString index="48">
            4 16 5 14 3 9 rrcurveto
            -114 hlineto
            -2 -25 -3 -41 4 -34 35 -28 rlinecurve
            -15 21 22 -8 27 hhcurveto
            35 28 11 21 23 hvcurveto
            -24 15 24 366 callgsubr
            -2 -5 -5 -12 8 -20 rrcurveto
            return
          </CharString>
          <CharString index="49">
            -79 callgsubr
            -7 21 -2 348 callsubr
            -135 hlineto
            -3 -567 callgsubr
            43 65 -22 -404 callsubr
            return
          </CharString>
          <CharString index="50">
            -1096 callsubr
            -50 -11 -28 -60 -5 -43 rrcurveto
            -90 -3 61 -65 89 hhcurveto
            59 29 26 27 29 hvcurveto
            -27 20 21 -26 51 hhcurveto
            131 50 104 116 11 hvcurveto
            return
          </CharString>
          <CharString index="51">
            3 45 -14 637 callgsubr
            -16 -17 -1 227 callgsubr
            15 -686 callsubr
            -17 15 hvcurveto
            return
          </CharString>
          <CharString index="52">
            -414 callgsubr
            -22 -40 -29 hhcurveto
            -853 callgsubr
            7 77 rlineto
            return
          </CharString>
          <CharString index="53">
            24 -1050 callsubr
            return
          </CharString>
          <CharString index="54">
            -1131 callgsubr
            -60 -17 58 55 -734 callgsubr
            return
          </CharString>
          <CharString index="55">
            rmoveto
            3 -1015 callsubr
            28 26 35 1 hvcurveto
            return
          </CharString>
          <CharString index="56">
            58 118 74 hstem
            11 121 272 115 vstem
            519 566 callgsubr
            -19 21 -28 16 -36 11 rrcurveto
            9 -29 -29 3 -24 hhcurveto
            -79 -61 -13 -25 -42 hvcurveto
            -39 -25 -20 -34 -3 -41 -924 callsubr
            return
          </CharString>
          <CharString index="57">
            -53 callsubr
            -543 callgsubr
            20 28 9 34 -7 29 -3 15 -6 13 -10 13 8 7 7 9 6 10 rrcurveto
            9 15 5 18 19 vvcurveto
            52 -30 47 -57 vhcurveto
            -243 -134 callsubr
            -3 hvcurveto
            -14 -7 -10 -14 277 callsubr
            -4 -78 rlineto
            73 hlineto
            7 8 0 1 8 hvcurveto
            6 -8 3 -9 -11 vvcurveto
            -1088 callsubr
            return
          </CharString>
          <CharString index="58">
            45 4 10 22 16 hhcurveto
            19 8 -20 -40 -3 hvcurveto
            -515 324 -99 callsubr
          </CharString>
          <CharString index="59">
            0 1 3 -867 callsubr
            return
          </CharString>
          <CharString index="60">
            -1079 callsubr
            -257 -987 callgsubr
            104 hlineto
            -20 -5 -17 -13 -15 -19 -17 -21 -10 -26 -3 -30 -3 -917 callsubr
            28 36 -14 43 -169 callsubr
            30 8 -1087 callsubr
            5 77 -16 59 -36 41 13 7 10 8 7 10 16 24 2 33 -21 37 rrcurveto
            240 -718 callgsubr
            29 41 15 52 4 55 rrcurveto
            return
          </CharString>
          <CharString index="61">
            155 13 -75 78 -164 hhcurveto
            -72 -59 -22 -43 -47 hvcurveto
            -44 -42 -25 -56 -7 -70 rrcurveto
            -137 -11 81 -94 150 hhcurveto
            74 61 21 42 47 hvcurveto
            729 callgsubr
            729 callgsubr
            4 -9 5 -8 6 -8 rrcurveto
            return
          </CharString>
          <CharString index="62">
            -984 callgsubr
            392 -1051 callgsubr
            return
          </CharString>
          <CharString index="63">
            15 1 19 340 callgsubr
            -15 return
          </CharString>
          <CharString index="64">
            -1 -41 rlineto
            98 hlineto
            8 87 139 30 -103 vvcurveto
            505 callgsubr
            -53 27 -116 -28 -3 -103 -11 -148 146 -44 91 73 85 66 11 216 -109 68 -18 13 -22 8 -25 1 -9 50 59 54 63 -49 4 60 rcurveline
            -37 29 -67 -5 -45 -24 -27 -15 -16 -21 -7 -25 rrcurveto
            -6 -23 -3 -24 -25 vvcurveto
            -19 -10 -16 -14 -13 -18 684 callgsubr
            -28 -33 13 -39 hhcurveto
            -65 -66 -12 -52 -23 hvcurveto
            -27 -59 23 -46 39 -27 7 -5 8 -5 7 -3 rrcurveto
            1 hlineto
            17 -8 rlineto
            21 -8 24 -13 -19 536 callgsubr
            return
          </CharString>
          <CharString index="65">
            607 227 rmoveto
            6 -386 callsubr
            -1 1 rcurveline
            8 5 7 6 7 6 19 18 9 26 1 35 3 63 -32 43 -47 3 rrcurveto
            26 -15 -6 54 48 -347 callsubr
            6 335 callgsubr
            -68 -36 -30 -61 -5 hvcurveto
            -2 -21 4 -17 9 -12 rrcurveto
            -302 hlineto
            -5 -72 rlineto
            309 269 callgsubr
            -104 hlineto
            14 -74 rlineto
            1 22 26 1 29 hhcurveto
            10 9 0 771 callsubr
            47 -13 24 -46 -80 67 callgsubr
            return
          </CharString>
          <CharString index="66">
            5 77 -6 56 -19 35 rrcurveto
            168 hlineto
            return
          </CharString>
          <CharString index="67">
            -69 -24 -124 -92 -63 -4 81 57 -13 vhcurveto
            -3 13 -5 11 -7 8 -6 11 -8 9 -11 8 -642 callgsubr
            31 39 41 13 40 hhcurveto
            19 -477 callsubr
            -31 53 -19 41 -15 33 -7 21 rlinecurve
            1 -11 -11 158 callgsubr
            -387 callgsubr
            -49 -481 callgsubr
            259 -753 rmoveto
            return
          </CharString>
          <CharString index="68">
            -1115 callgsubr
            42 30 -18 -37 18 hvcurveto
            return
          </CharString>
          <CharString index="69">
            -31 22 33 -15 45 -825 callsubr
            52 hhcurveto
            104 74 80 287 callgsubr
            return
          </CharString>
          <CharString index="70">
            hvcurveto
            -16 -991 callsubr
            return
          </CharString>
          <CharString index="71">
            -401 791 callgsubr
            72 51 return
          </CharString>
          <CharString index="72">
            91 -37 -847 callgsubr
            -78 -506 callgsubr
            29 -17 19 -13 35 -9 49 -3 rrcurveto
            -1 4 3 0 2 hhcurveto
            7 hlineto
            -1 3 2 0 3 hhcurveto
            3 hlineto
            37 -1 34 -8 28 -23 357 callsubr
            hintmask 1101101110000000
            -1110 callgsubr
            -486 callgsubr
            -37 21 return
          </CharString>
          <CharString index="73">
            23 callgsubr
            -56 return
          </CharString>
          <CharString index="74">
            7 hlineto
            59 -1019 callgsubr
            return
          </CharString>
          <CharString index="75">
            rmoveto
            -663 callgsubr
            -66 callgsubr
            return
          </CharString>
          <CharString index="76">
            33 65 16 0 18 3 21 hvcurveto
            return
          </CharString>
          <CharString index="77">
            -65 709 callgsubr
            37 31 -643 callsubr
            -56 280 callgsubr
            44 -568 callgsubr
            35 hvcurveto
            42 26 23 36 3 46 rrcurveto
            return
          </CharString>
          <CharString index="78">
            -23 34 37 -11 40 hhcurveto
            54 49 19 39 45 hvcurveto
            21 19 17 21 13 24 -1 -36 7 -28 13 -20 rrcurveto
            -23 15 31 -11 45 hhcurveto
            125 79 105 115 8 hvcurveto
            -651 callsubr
            61 -11 48 -23 35 vhcurveto
            13 2 12 3 11 5 47 19 28 47 -33 54 rrcurveto
            150 303 callgsubr
            -46 -1 hvcurveto
            -85 49 -91 -69 -8 -76 -29 -201 181 -17 92 107 29 40 15 54 4 53 rrcurveto
            -1107 -125 rmoveto
            -141 -40 -71 -80 -40 -27 17 33 -13 vhcurveto
            -11 25 -4 38 3 51 rrcurveto
            110 6 40 55 74 hhcurveto
            61 31 -39 -78 hvcurveto
            return
          </CharString>
          <CharString index="79">
            82 -26 1 -55 -5 -740 callsubr
            -98 65 -95 -103 21 -108 33 -175 238 18 8 275 rrcurveto
            return
          </CharString>
          <CharString index="80">
            -47 -1023 callsubr
            15 -416 callsubr
            return
          </CharString>
          <CharString index="81">
            5 rlineto
            -590 callsubr
            -70 return
          </CharString>
          <CharString index="82">
            -24 16 -1 469 callsubr
            17 14 -9 -18 12 hvcurveto
            4 679 callgsubr
            -32 -28 -9 -17 -24 hvcurveto
            -25 595 callgsubr
            -36 -8 -29 -15 -36 -18 -19 -27 -1 -35 -3 -31 13 -25 523 callsubr
            26 18 14 21 3 25 rrcurveto
            7 -12 4 -11 -13 vvcurveto
            -52 -5 -644 callgsubr
            10 -5 -88 -36 -49 -77 -9 -119 rlinecurve
            -2 callgsubr
            return
          </CharString>
          <CharString index="83">
            13 -32 3 -46 -1 -32 -270 callsubr
            24 4 36 5 -511 callsubr
            -42 -894 callgsubr
            return
          </CharString>
          <CharString index="84">
            797 callgsubr
            -88 hhcurveto
            return
          </CharString>
          <CharString index="85">
            65 hhcurveto
            79 782 callsubr
            57 hvcurveto
            return
          </CharString>
          <CharString index="86">
            -3 -29 rlineto
            107 hlineto
            1 24 rlineto
            36 4 17 31 27 hhcurveto
            41 20 -35 -75 -8 hvcurveto
            -21 -7 -22 -3 -19 vhcurveto
            24 -51 -61 13 -76 hhcurveto
            -86 -135 -22 -103 -11 hvcurveto
            -4 778 callgsubr
            50 783 callgsubr
            43 -1117 callgsubr
            4 -620 callgsubr
            rrcurveto
            return
          </CharString>
          <CharString index="87">
            -104 callgsubr
            -176 179 rmoveto
            -73 -4 -22 -36 -39 hhcurveto
            -37 -23 37 51 4 hvcurveto
            2 22 8 24 15 27 rrcurveto
            15 9 30 42 23 hhcurveto
            return
          </CharString>
          <CharString index="88">
            3 -35 28 -72 hhcurveto
            return
          </CharString>
          <CharString index="89">
            -53 16 46 -23 59 hhcurveto
            35 31 8 15 26 hvcurveto
            24 15 20 17 17 21 rrcurveto
            -53 19 47 -23 56 -123 callsubr
            -1122 264 rmoveto
            -53 27 -40 33 -16 vhcurveto
            45 callsubr
            return
          </CharString>
          <CharString index="90">
            3 rrcurveto
            -19 3 -9 12 return
          </CharString>
          <CharString index="91">
            512 524 rmoveto
            5 64 -33 42 -47 3 rrcurveto
            26 -15 -7 54 49 hhcurveto
            19 16 -10 -20 14 hvcurveto
            4 65 rlineto
            19 -23 -24 -276 callgsubr
            -1 -29 -24 -12 -27 -4 rrcurveto
            -1 -6 -6 -1 -7 hhcurveto
            1 -13 -14 1 -15 hhcurveto
            -12 hlineto
            -71 -3 -58 -21 -45 -41 -779 callsubr
            -24 64 -55 37 8 6 7 7 7 9 rrcurveto
            return
          </CharString>
          <CharString index="92">
            -107 callsubr
            endchar
          </CharString>
          <CharString index="93">
            86 callsubr
            -17 39 -39 44 60 40 22 45 36 vhcurveto
            33 44 23 54 8 76 5 61 -4 56 -29 45 -11 17 -11 12 -13 7 -3 1 -2 2 -2 1 -5 3 -5 3 -5 2 -3 1 rcurveline
            -10 4 -4 1 -7 2 -13 5 -9 4 -3 19 rlinecurve
            17 -1 17 9 12 hhcurveto
            59 hlineto
            9 63 rlineto
            -72 hlineto
            -15 -7 6 11 hvcurveto
            return
          </CharString>
          <CharString index="94">
            -90 -19 -17 -83 21 -49 26 -62 98 -20 67 67 50 -58 -40 -107 -37 -32 rrcurveto
            -26 -30 -39 -13 -49 hhcurveto
            -56 -35 8 15 -13 hvcurveto
            35 -24 74 20 5 72 4 36 -22 40 -31 16 -85 45 -104 -44 -3 -92 rrcurveto
            -70 -3 70 -60 44 hhcurveto
            -82 -106 60 -149 143 return
          </CharString>
          <CharString index="95">
            -622 callgsubr
            48 45 23 46 41 hvcurveto
            725 callsubr
            -17 20 -11 rrcurveto
            -12 22 173 callsubr
            64 134 120 hvcurveto
            return
          </CharString>
          <CharString index="96">
            rrcurveto
            -141 -11 83 -702 callgsubr
            155 109 249 callsubr
            return
          </CharString>
          <CharString index="97">
            42 -50 21 callsubr
            return
          </CharString>
          <CharString index="98">
            rmoveto
            -33 157 callsubr
            -19 -9 17 34 1 670 callsubr
            11 -23 -23 -1 hvcurveto
            154 -388 152 callgsubr
            -17 -8 14 29 3 hvcurveto
            27 1 740 callsubr
            hhcurveto
            17 7 -22 -43 -4 hvcurveto
            endchar
          </CharString>
          <CharString index="99">
            7 callgsubr
            73 38 28 68 12 21 rrcurveto
            return
          </CharString>
          <CharString index="100">
            3 16 6 14 1 9 rrcurveto
            -113 hlineto
            742 callgsubr
            -41 3 -34 37 -28 rlinecurve
            -15 21 21 -8 27 -685 callsubr
            25 -12 35 hhcurveto
            32 29 11 20 27 -130 callsubr
            -19 vhcurveto
            13 11 10 759 callgsubr
            rrcurveto
            return
          </CharString>
          <CharString index="101">
            3 -9 12 22 vvcurveto
            return
          </CharString>
          <CharString index="102">
            615 227 rmoveto
            4 74 -15 57 -35 39 rrcurveto
            196 hlineto
            48 28 -28 -41 7 hvcurveto
            -167 callgsubr
            -11 -23 -26 hvcurveto
            -29 -27 500 callsubr
            -28 21 -23 rrcurveto
            -27 23 35 -14 47 hhcurveto
            47 38 19 37 31 hvcurveto
            32 38 18 46 5 53 rrcurveto
            111 9 -45 77 -99 hhcurveto
            -674 hlineto
            -7 -75 rlineto
            173 hlineto
            -1 3 4 0 5 hhcurveto
            32 -284 callsubr
            return
          </CharString>
          <CharString index="103">
            rmoveto
            4 41 -14 24 -33 8 rrcurveto
            29 13 14 19 27 vvcurveto
            4 24 -9 22 -23 19 rrcurveto
            13 -21 -26 7 -31 hhcurveto
            -33 -29 -11 -21 -27 hvcurveto
            -3 -53 rlineto
            13 31 13 7 31 hhcurveto
            return
          </CharString>
          <CharString index="104">
            40 callgsubr
            3 hvcurveto
            49 4 return
          </CharString>
          <CharString index="105">
            -55 136 callgsubr
            -7 31 -2 21 728 callgsubr
            return
          </CharString>
          <CharString index="106">
            -31 -22 -24 -15 -27 hhcurveto
            -33 -16 27 53 485 callgsubr
            92 8 -57 50 -95 hhcurveto
            -47 -40 336 callsubr
            -5 -46 rrcurveto
            -100 -7 54 -59 97 hhcurveto
            53 44 15 29 33 hvcurveto
            -29 19 32 -15 43 hhcurveto
            61 -565 callgsubr
            return
          </CharString>
          <CharString index="107">
            -3 -48 -13 -41 -22 -35 rrcurveto
            -38 -23 -23 -19 -24 hhcurveto
            -50 2 62 34 3 hvcurveto
            92 5 -57 50 -92 hhcurveto
            -92 -81 -48 -98 -11 hvcurveto
            329 callgsubr
            -29 20 31 -15 43 hhcurveto
            60 52 19 37 44 -917 callgsubr
            return
          </CharString>
          <CharString index="108">
            7 29 -23 52 hhcurveto
            48 44 return
          </CharString>
          <CharString index="109">
            555 527 rmoveto
            112 -86 6 -80 vhcurveto
            -280 hlineto
            -4 -70 rlineto
            328 hlineto
            35 15 385 callgsubr
            -29 -19 -12 -33 -1 vhcurveto
            -74 -4 rlineto
            727 callgsubr
            0 -10 hhcurveto
            -177 -96 -87 -173 -13 hvcurveto
            11 callgsubr
            6 88 -25 63 -57 38 5 4 rcurveline
            27 20 16 30 41 vvcurveto
            -82 -311 -976 callgsubr
            return
          </CharString>
          <CharString index="110">
            63 77 -110 callsubr
            92 707 callsubr
            1 124 -98 98 90 113 356 113 return
          </CharString>
          <CharString index="111">
            -11 -12 -1 -11 hhcurveto
            -53 -3 -46 718 callsubr
            10 719 callgsubr
            27 56 -9 83 hhcurveto
            20 11 12 23 1 hvcurveto
            return
          </CharString>
          <CharString index="112">
            69 -69 184 85 68 58 69 -547 callsubr
            181 95 55 100 62 142 return
          </CharString>
          <CharString index="113">
            517 rmoveto
            1 -55 20 -36 39 -18 return
          </CharString>
          <CharString index="114">
            591 227 rmoveto
            -3 callgsubr
            46 -595 callgsubr
            return
          </CharString>
          <CharString index="115">
            -47 hhcurveto
            -96 -73 -18 -51 -47 hvcurveto
            -14 -17 -11 -24 -7 -31 -1 -11 -3 -16 -1 -15 -650 callsubr
            2 15 2 13 3 10 rrcurveto
            return
          </CharString>
          <CharString index="116">
            -1001 callsubr
            -705 callsubr
            return
          </CharString>
          <CharString index="117">
            3 27 -2 23 -7 20 426 callsubr
            16 -32 10 -25 -4 -21 rrcurveto
            return
          </CharString>
          <CharString index="118">
            -401 -753 callgsubr
            -6 -6 0 return
          </CharString>
          <CharString index="119">
            -622 callgsubr
            49 46 24 48 41 -820 callgsubr
            4 61 -10 49 -23 37 rrcurveto
            181 hlineto
            48 31 -30 -39 4 hvcurveto
            15 -27 -23 7 -19 hhcurveto
            -31 -28 -11 -23 -25 hvcurveto
            -31 -26 -16 -33 -3 -41 -3 -34 9 -29 -125 callgsubr
            47 40 19 38 31 hvcurveto
            33 40 18 46 3 52 rrcurveto
            106 8 -57 82 -97 hhcurveto
            -468 hlineto
            -7 -75 rlineto
            4 hlineto
            -9 -18 -5 -22 -1 -25 -3 -57 15 -39 12 -11 rrcurveto
            -200 348 callgsubr
            325 hlineto
            return
          </CharString>
          <CharString index="120">
            -961 callsubr
            rrcurveto
            -25 -309 rmoveto
            return
          </CharString>
          <CharString index="121">
            87 callgsubr
            hintmask 1011011111110000
            505 callsubr
            return
          </CharString>
          <CharString index="122">
            rmoveto
            36 3 -24 27 -29 hhcurveto
            -29 -26 -27 -36 -1 hvcurveto
            -37 -4 21 -25 29 hhcurveto
            31 26 27 35 3 hvcurveto
            return
          </CharString>
          <CharString index="123">
            rmoveto
            -43 -1 -11 -21 -21 hhcurveto
            -23 -10 18 37 4 hvcurveto
            43 3 11 21 19 hhcurveto
            21 9 -18 -37 -1 hvcurveto
            return
          </CharString>
          <CharString index="124">
            304 callgsubr
            -21 -23 hhcurveto
            -27 -11 779 callgsubr
            hvcurveto
            return
          </CharString>
          <CharString index="125">
            4 hvcurveto
            61 5 18 31 31 hhcurveto
            return
          </CharString>
          <CharString index="126">
            -737 callsubr
            hintmask 11100000
            -1090 callsubr
            hintmask 11010000
            -751 callsubr
          </CharString>
          <CharString index="127">
            53 -8 50 38 -3 62 -1 53 -37 -899 callsubr
            31 47 -12 53 hhcurveto
            72 59 10 32 35 hvcurveto
            5 3 4 4 4 4 9 -15 12 -11 15 -8 rrcurveto
            return
          </CharString>
          <CharString index="128">
            3 hvcurveto
            1 3 0 -747 callgsubr
            -7 54 -59 97 -1054 callgsubr
            33 hvcurveto
            return
          </CharString>
          <CharString index="129">
            591 -925 callsubr
            return
          </CharString>
          <CharString index="130">
            29 -17 34 -35 41 344 callsubr
            -2 -30 rrcurveto
            return
          </CharString>
          <CharString index="131">
            -15 callgsubr
            -590 callsubr
            -70 return
          </CharString>
          <CharString index="132">
            625 227 -981 callgsubr
            return
          </CharString>
          <CharString index="133">
            64 -184 callgsubr
            -383 callgsubr
            hvcurveto
            12 callgsubr
            return
          </CharString>
          <CharString index="134">
            vstem
            124 525 rmoveto
            -4 -814 callsubr
            return
          </CharString>
          <CharString index="135">
            -869 callgsubr
            9 9 10 9 11 return
          </CharString>
          <CharString index="136">
            -910 callgsubr
            5 61 rrcurveto
            return
          </CharString>
          <CharString index="137">
            rrcurveto
            100 callsubr
            return
          </CharString>
          <CharString index="138">
            21 rrcurveto
            26 hlineto
            83 58 47 73 3 hvcurveto
            3 27 -9 22 -19 15 30 -7 23 -22 15 -38 14 -38 5 -44 -3 -51 rrcurveto
            return
          </CharString>
          <CharString index="139">
            -32 -14 24 47 5 hvcurveto
            64 4 15 772 callsubr
            31 13 -27 -53 return
          </CharString>
          <CharString index="140">
            vlineto
            -5 -541 callgsubr
            return
          </CharString>
          <CharString index="141">
            -12 -25 -35 hvcurveto
            -37 return
          </CharString>
          <CharString index="142">
            -743 callgsubr
            3 hvcurveto
            49 4 35 34 52 503 callgsubr
            21 14 15 19 8 25 rrcurveto
            158 hlineto
            6 349 callgsubr
            2 24 12 2 rlineto
            1 13 1 11 10 vvcurveto
            20 vlineto
            -45 -3 -31 16 4 44 11 71 114 -18 -5 -90 -2 -42 rcurveline
            99 hlineto
            8 92 139 24 -98 vvcurveto
            -9 -1 -6 -1 -3 vhcurveto
            -55 33 -109 -35 -8 -100 -5 -145 140 -40 91 94 return
          </CharString>
          <CharString index="143">
            -13 23 -47 -79 26 callsubr
            return
          </CharString>
          <CharString index="144">
            rmoveto
            -848 callsubr
            -17 -13 9 17 -9 hvcurveto
            -692 callsubr
            40 16 -44 -87 -7 hvcurveto
            -304 80 rmoveto
            return
          </CharString>
          <CharString index="145">
            -900 callsubr
            -39 -800 callgsubr
            return
          </CharString>
          <CharString index="146">
            -105 callsubr
            -244 return
          </CharString>
          <CharString index="147">
            -108 callgsubr
            -14 58 55 return
          </CharString>
          <CharString index="148">
            -75 -69 callsubr
            return
          </CharString>
          <CharString index="149">
            hlineto
            -4 -36 rlineto
            -41 return
          </CharString>
          <CharString index="150">
            56 callsubr
            -42 29 13 -22 55 hhcurveto
            111 74 85 -230 callsubr
            -4 4 13 7 11 9 10 11 rlinecurve
            15 17 8 23 31 vvcurveto
            59 -20 29 -57 4 vhcurveto
            17 -20 -1 61 48 hhcurveto
            17 16 195 callgsubr
            16 -23 -24 10 -27 hhcurveto
            return
          </CharString>
          <CharString index="151">
            rmoveto
            64 8 -38 42 -56 hhcurveto
            -58 -49 -42 -64 -11 hvcurveto
            -61 -10 38 -40 60 hhcurveto
            55 52 40 61 9 hvcurveto
            -55 1 rmoveto
            -29 -3 -25 -20 -26 hhcurveto
            -28 -19 20 29 6 hvcurveto
            31 4 23 21 28 hhcurveto
            26 19 -21 -31 -5 hvcurveto
            endchar
          </CharString>
          <CharString index="152">
            hvcurveto
            -5 9 callgsubr
            return
          </CharString>
          <CharString index="153">
            -69 -57 -37 -63 hvcurveto
            -5 vlineto
            -75 -8 -39 -33 -5 -58 rrcurveto
            -65 -6 33 -33 73 -164 callgsubr
            1 -30 -21 -62 hhcurveto
            -57 -40 21 41 -24 hvcurveto
            -8 322 callsubr
            37 hvcurveto
            return
          </CharString>
          <CharString index="154">
            -47 336 rmoveto
            -28 -3 -10 -14 -19 hhcurveto
            -19 -9 14 28 3 hvcurveto
            29 1 384 callgsubr
            20 9 -15 -29 -2 hvcurveto
            return
          </CharString>
          <CharString index="155">
            -39 7 767 callgsubr
            -2 -40 rrcurveto
            return
          </CharString>
          <CharString index="156">
            65 -65 187 -187 208 return
          </CharString>
          <CharString index="157">
            rmoveto
            -8 -87 -56 175 callsubr
            return
          </CharString>
          <CharString index="158">
            hhcurveto
            -48 -27 callgsubr
            return
          </CharString>
          <CharString index="159">
            rrcurveto
            91 -38 -417 callgsubr
            -4 hvcurveto
            -4 -45 12 -31 28 -17 5 -3 rcurveline
            -32 -23 -18 -29 -3 -35 -8 -81 76 -31 68 3 rrcurveto
            4 60 29 3 4 hhcurveto
            -450 callgsubr
            hintmask 0111001110000000
            -920 callgsubr
            148 98 rmoveto
            5 97 71 4 -9 -103 -11 -100 -59 713 callgsubr
          </CharString>
          <CharString index="160">
            -41 -5 -25 -21 -46 hhcurveto
            -77 -57 -51 -77 -5 hvcurveto
            -103 -9 161 callgsubr
            61 35 -939 callsubr
            return
          </CharString>
          <CharString index="161">
            29 -77 callsubr
            return
          </CharString>
          <CharString index="162">
            -190 callsubr
            -2 -23 -1 -18 -5 -17 -11 -17 rrcurveto
            return
          </CharString>
          <CharString index="163">
            -82 -11 -128 -5 -64 20 -52 45 -41 rrcurveto
            -45 return
          </CharString>
          <CharString index="164">
            85 -17 60 -44 37 vhcurveto
            -36 29 -63 15 -48 -11 -4 -75 rcurveline
            -1 10 2 4 21 hvcurveto
            60 30 -46 -93 -67 -43 -98 -78 -46 -29 41 44 -11 hvcurveto
            -2 9 -1 9 9 vvcurveto
            2 19 rlineto
            1 7 1 7 6 vvcurveto
            19 vlineto
            1 0 0 -1 1 vhcurveto
            -1 23 -2 23 -5 21 -7 33 -13 29 -19 23 rrcurveto
            33 -29 -37 19 -37 hhcurveto
            -53 hlineto
            -8 -78 rlineto
            29 26 -11 -39 19 hvcurveto
            16 -36 5 -43 -3 -33 -3 -45 -13 -38 -23 -31 rrcurveto
            return
          </CharString>
          <CharString index="165">
            512 555 rmoveto
            3 49 -18 38 -40 26 -33 22 -42 11 -50 -1 rrcurveto
            -43 -37 -8 -15 -33 hvcurveto
            -39 -17 -20 -27 -3 -37 -1 -32 12 -24 27 -17 rrcurveto
            -15 22 28 -8 34 hhcurveto
            33 29 8 17 26 hvcurveto
            27 17 15 22 3 25 6 200 callgsubr
            -3 -44 -26 -84 -769 callsubr
            14 -6 -85 -37 -48 -77 -9 -117 rlinecurve
            -1006 callgsubr
            return
          </CharString>
          <CharString index="166">
            16 18 30 -704 callgsubr
            return
          </CharString>
          <CharString index="167">
            1 227 callsubr
            -1 -610 callgsubr
            22 14 15 19 7 25 rrcurveto
            159 hlineto
            4 349 callgsubr
            2 24 14 2 rlineto
            54 vlineto
            -43 -3 -33 16 5 44 8 71 118 -18 -6 -90 -2 -42 rcurveline
            98 hlineto
            10 92 138 24 -98 vvcurveto
            -9 0 -6 -1 -3 vhcurveto
            -55 33 -114 -35 -3 -100 -11 -146 145 -38 91 93 return
          </CharString>
          <CharString index="168">
            127 0 72 115 50 66 161 -60 60 hstemhm
            11 64 -64 114 234 89 hintmask 11101010
            743 72 rmoveto
            -596 hlineto
            -51 -21 32 20 52 50 6 67 5 hvcurveto
            114 11 142 -11 128 vvcurveto
            87 1 -68 62 -117 hhcurveto
            -139 -109 -43 -118 -5 hvcurveto
            hintmask 11100110
            114 hlineto
            hintmask 11011010
            80 66 21 66 68 34 -34 -43 -76 -84 -14 -83 -92 -93 -23 -91 -61 25 -62 115 vhcurveto
            589 hlineto
            endchar
          </CharString>
          <CharString index="169">
            -37 -49 -22 -59 -7 -71 -678 callsubr
            return
          </CharString>
          <CharString index="170">
            -570 callgsubr
            -134 hlineto
            -4 -567 callgsubr
            44 -991 callgsubr
            return
          </CharString>
          <CharString index="171">
            -446 -65 callsubr
            return
          </CharString>
          <CharString index="172">
            -47 8 29 -23 757 callgsubr
            40 -632 callsubr
            return
          </CharString>
          <CharString index="173">
            -32 -11 -18 -16 -25 hhcurveto
            -19 -14 10 20 -9 hvcurveto
            -7 16 -3 20 2 24 rrcurveto
            return
          </CharString>
          <CharString index="174">
            -110 -8 -26 -55 -45 hhcurveto
            -33 -15 32 63 return
          </CharString>
          <CharString index="175">
            3 rlinecurve
            -767 callsubr
            return
          </CharString>
          <CharString index="176">
            -208 45 -45 64 72 52 return
          </CharString>
          <CharString index="177">
            207 callsubr
            -6 -71 -6 -71 14 -446 callsubr
            -14 757 callsubr
            return
          </CharString>
          <CharString index="178">
            1 rrcurveto
            83 72 481 callgsubr
            6 87 15 157 -55 87 -126 19 return
          </CharString>
          <CharString index="179">
            1 5 1 -502 callsubr
            return
          </CharString>
          <CharString index="180">
            555 243 rmoveto
            109 callgsubr
            -3 4 -2 4 -3 3 5 3 rcurveline
            29 19 22 31 53 vvcurveto
            57 -22 30 -55 5 vhcurveto
            18 -21 0 59 48 hhcurveto
            16 17 -9 -19 17 hvcurveto
            6 66 rlineto
            19 -27 -25 9 -24 hhcurveto
            -69 -36 -30 -61 -3 hvcurveto
            -1 -23 3 -18 7 518 callsubr
            hvcurveto
            -2 -15 -8 284 callgsubr
            -4 -21 -3 -19 hhcurveto
            -48 hlineto
            -5 -71 rlineto
            return
          </CharString>
          <CharString index="181">
            563 220 rmoveto
            -592 callsubr
            -4 31 -11 26 -19 20 39 24 22 34 3 44 8 63 -37 535 callgsubr
            24 236 callsubr
            -21 5 -17 7 -513 callgsubr
            33 33 -14 -33 hvcurveto
            -37 3 -27 -12 -33 hhcurveto
            -117 hlineto
            12 -74 75 2 return
          </CharString>
          <CharString index="182">
            -720 callsubr
            3 55 -10 47 -21 40 rrcurveto
            46 -27 -41 23 -53 hhcurveto
            -217 hlineto
            -1 4 -2 4 -2 3 101 callgsubr
            33 25 -10 -21 18 hvcurveto
            15 -16 11 -19 9 -21 rrcurveto
            -375 hlineto
            -7 -71 rlineto
            212 hlineto
            16 11 return
          </CharString>
          <CharString index="183">
            -1 -27 23 -43 37 -43 rrcurveto
            -53 -44 -26 -53 -35 hvcurveto
            -29 -43 -17 -53 -5 -62 rrcurveto
            -98 -8 44 -130 116 hhcurveto
            69 27 13 52 28 hvcurveto
            return
          </CharString>
          <CharString index="184">
            -49 14 -44 17 -15 vhcurveto
            137 hlineto
            -28 48 -15 63 3 48 rrcurveto
            52 4 22 35 25 hhcurveto
            41 -10 -60 -24 hvcurveto
            -7 -61 10 -43 25 -24 rrcurveto
            return
          </CharString>
          <CharString index="185">
            rmoveto
            -33 -2 -10 -17 -19 hhcurveto
            -19 -8 17 34 3 hvcurveto
            30 2 -373 callsubr
          </CharString>
          <CharString index="186">
            -374 -1035 callgsubr
            return
          </CharString>
          <CharString index="187">
            -804 callsubr
            3 60 17 47 29 34 return
          </CharString>
          <CharString index="188">
            -3 53 -35 36 -56 4 -61 1 -54 -33 -5 -77 rrcurveto
            -57 35 -59 78 -19 vhcurveto
            -16 -65 -37 -180 201 hhcurveto
            168 44 249 callgsubr
            59 23 27 55 69 vvcurveto
            -61 -363 rmoveto
            -23 callgsubr
            -274 68 rmoveto
            -57 -13 -35 36 30 vvcurveto
            return
          </CharString>
          <CharString index="189">
            -614 callsubr
            rrcurveto
            5 -36 -23 4 -21 hhcurveto
            -22 hlineto
            -4 hlineto
            -4 hlineto
            -39 -26 0 5 -11 hvcurveto
            -15 5 -7 11 1 18 rrcurveto
            -664 callsubr
            77 55 -6 -12 33 hvcurveto
            59 -21 27 -42 -4 -61 rrcurveto
            return
          </CharString>
          <CharString index="190">
            rmoveto
            -33 -3 -17 -31 -24 hhcurveto
            -11 -8 8 15 -5 hvcurveto
            -5 11 -1 12 2 13 rrcurveto
            36 3 16 35 27 hhcurveto
            20 9 -22 -44 -3 hvcurveto
            endchar
          </CharString>
          <CharString index="191">
            4 13 1 8 3 5 rrcurveto
            -81 711 callgsubr
            -2 -15 rrcurveto
            return
          </CharString>
          <CharString index="192">
            19 32 21 hvcurveto
            -31 16 30 -20 55 hhcurveto
            107 57 50 99 7 hvcurveto
            return
          </CharString>
          <CharString index="193">
            -78 callgsubr
            390 76 rmoveto
            122 5 -48 115 -128 hhcurveto
            -57 hlineto
            -7 -69 rlineto
            82 42 -98 -66 -8 hvcurveto
            -4 -45 -11 -38 -25 -31 rrcurveto
            -31 -21 12 callsubr
            1 hvcurveto
            1 3 1 4 5 vvcurveto
            92 5 -56 57 callsubr
            return
          </CharString>
          <CharString index="194">
            vvcurveto
            -47 -5 -42 -9 -39 vhcurveto
            -807 callgsubr
            return
          </CharString>
          <CharString index="195">
            rmoveto
            -108 -8 -46 -54 -85 hhcurveto
            -84 -43 63 99 7 hvcurveto
            99 9 428 callgsubr
            44 32 -16 -32 20 hvcurveto
            18 34 callgsubr
            return
          </CharString>
          <CharString index="196">
            rmoveto
            -108 -9 -44 -54 -81 hhcurveto
            -83 -39 63 99 7 hvcurveto
            99 9 52 66 75 hhcurveto
            41 30 -16 -32 20 hvcurveto
            17 -29 8 -39 -3 -49 rrcurveto
            return
          </CharString>
          <CharString index="197">
            112 -110 3 -78 vhcurveto
            -280 -672 callsubr
            35 16 -18 -36 -5 hvcurveto
            -29 -2 -13 -32 vhcurveto
            -178 -4 12 -67 rlineto
            return
          </CharString>
          <CharString index="198">
            -309 callgsubr
            59 141 -783 callgsubr
            return
          </CharString>
          <CharString index="199">
            -711 callsubr
            -53 -11 -24 -26 -38 hhcurveto
            -21 return
          </CharString>
          <CharString index="200">
            -3 callsubr
            49 43 28 57 5 71 return
          </CharString>
          <CharString index="201">
            121 122 118 22 214 -118 118 return
          </CharString>
          <CharString index="202">
            206 callgsubr
            51 hhcurveto
            27 24 6 12 23 hvcurveto
            return
          </CharString>
          <CharString index="203">
            -27 -957 callgsubr
            return
          </CharString>
          <CharString index="204">
            -4 -61 rlineto
            3 10 210 callsubr
            return
          </CharString>
          <CharString index="205">
            -1030 callsubr
            4 return
          </CharString>
          <CharString index="206">
            227 rmoveto
            -1065 callsubr
            return
          </CharString>
          <CharString index="207">
            -673 callgsubr
            33 -36 rrcurveto
            -372 callgsubr
            168 105 104 187 13 hvcurveto
            -115 -9 rmoveto
            -5 -65 -17 -52 -30 -37 rrcurveto
            -40 -31 -42 -20 -52 hhcurveto
            -63 -32 36 72 hvcurveto
            31 vlineto
            5 40 14 30 24 -993 callsubr
            return
          </CharString>
          <CharString index="208">
            4 65 rlineto
            -101 hlineto
            -5 -62 -141 callsubr
            8 56 60 105 hhcurveto
            55 39 -8 -16 790 callsubr
            -21 12 -38 -55 vvcurveto
            -17 vlineto
            -6 0 -7 -1 -7 vhcurveto
            return
          </CharString>
          <CharString index="209">
            -1121 callgsubr
            99 8 428 callgsubr
            45 32 -16 -32 21 hvcurveto
            -256 callsubr
            return
          </CharString>
          <CharString index="210">
            rmoveto
            -58 -3 -15 -29 -26 hhcurveto
            -992 callsubr
            -5 hvcurveto
            return
          </CharString>
          <CharString index="211">
            rmoveto
            -59 -5 -18 -29 -32 hhcurveto
            -28 -22 35 56 5 hvcurveto
            63 5 18 31 33 hhcurveto
            34 15 -32 -65 -5 hvcurveto
            return
          </CharString>
          <CharString index="212">
            rmoveto
            3 29 -17 34 -35 41 -44 -39 -27 -34 756 callsubr
            return
          </CharString>
          <CharString index="213">
            -57 -5 -73 -5 -67 15 -55 35 -43 rrcurveto
            -39 return
          </CharString>
          <CharString index="214">
            768 callgsubr
            30 770 callgsubr
            return
          </CharString>
          <CharString index="215">
            -5 37 -17 28 -40 15 182 callsubr
            22 20 -4 -9 19 705 callsubr
            -16 32 -22 43 -15 26 -7 9 453 callsubr
            -30 -19 -32 -20 -36 rcurveline
            -11 -15 -14 -6 -16 3 rrcurveto
            -17 3 -11 10 23 vvcurveto
            4 3 29 9 57 vhcurveto
            return
          </CharString>
          <CharString index="216">
            -28 callsubr
            63 37 36 58 7 78 return
          </CharString>
          <CharString index="217">
            570 -1 68 -68 -546 callgsubr
            -69 69 1 -20 hstemhm
            223 106 122 101 177 96 55 99 64 141 hintmask 1000101111100000
            825 253 rmoveto
            60 -12 47 -23 35 vhcurveto
            -1092 callsubr
            hintmask 1000011111100000
            111 3 -29 77 -90 hhcurveto
            return
          </CharString>
          <CharString index="218">
            -496 callsubr
            -4 5 -4 4 -5 4 5 4 rcurveline
            28 21 19 34 41 vvcurveto
            63 -56 51 -54 -5 vhcurveto
            -1 -2 2 -5 hhcurveto
            -349 -376 callsubr
            -27 768 callsubr
            -1 -76 -3 rcurveline
            -12 264 callsubr
            return
          </CharString>
          <CharString index="219">
            584 15 rmoveto
            271 callgsubr
            162 hlineto
            4 349 callgsubr
            3 33 16 3 rlineto
            50 10 37 31 63 vvcurveto
            61 -3 -38 31 -57 hhcurveto
            -182 hlineto
            -6 -67 rlineto
            135 hlineto
            34 -253 callgsubr
            -8 -10 -13 -4 rrcurveto
            -2 -8 421 callsubr
            -28 hlineto
            -3 -64 rlineto
            27 585 callsubr
            return
          </CharString>
          <CharString index="220">
            -33 -15 27 55 -57 callgsubr
            return
          </CharString>
          <CharString index="221">
            hlineto
            -6 -67 rlineto
            228 hlineto
            35 12 -22 -25 -1 hvcurveto
            -2 -42 -71 11 -27 1 rrcurveto
            -46 hlineto
            -6 -67 40 -1 rlineto
            34 hlineto
            35 -3 37 4 29 16 4 2 4 3 4 3 -9 10 -13 8 -17 6 rrcurveto
            9 -22 -42 4 -15 hhcurveto
            -7 hlineto
            5 -62 8 -66 24 hhcurveto
            67 -4 22 -28 -1 -36 rrcurveto
            -53 -5 -43 572 callgsubr
            52 -8 54 40 -5 60 rrcurveto
            return
          </CharString>
          <CharString index="222">
            -3 53 -35 36 -57 4 -969 callgsubr
            return
          </CharString>
          <CharString index="223">
            -1097 callgsubr
            -501 callsubr
            -38 47 rrcurveto
            return
          </CharString>
          <CharString index="224">
            38 577 callgsubr
            84 72 34 67 61 hvcurveto
            61 67 33 77 7 87 rrcurveto
            return
          </CharString>
          <CharString index="225">
            16 -17 8 -28 -39 -937 callsubr
            -5 -53 14 -50 12 -49 232 callgsubr
            -25 28 -13 84 5 38 rrcurveto
            21 16 79 30 vhcurveto
            23 1 12 739 callsubr
            -23 -9 -42 -3 -18 vhcurveto
            -72 -11 62 -56 85 hhcurveto
            131 734 callsubr
            15 734 callgsubr
            return
          </CharString>
          <CharString index="226">
            869 277 rmoveto
            4 58 -8 47 -20 35 -22 41 -32 21 -43 1 rrcurveto
            1 -43 -131 2 -197 hhcurveto
            -5 -71 rlineto
            23 hlineto
            17 -1 13 -5 9 -8 rrcurveto
            9 -9 5 -11 -14 -538 callgsubr
            return
          </CharString>
          <CharString index="227">
            hlineto
            41 20 212 callgsubr
            18 -13 -20 9 -25 hhcurveto
            -33 -28 -8 -17 -22 hvcurveto
            -27 -23 -15 -31 -2 -40 rrcurveto
            -88 -7 53 -44 69 hhcurveto
            45 39 18 36 32 hvcurveto
            27 32 16 39 5 45 rrcurveto
            return
          </CharString>
          <CharString index="228">
            13 9 15 7 21 hhcurveto
            25 17 -35 -29 -5 hvcurveto
            -35 -3 -29 -27 -25 hhcurveto
            -31 3 -14 18 -11 27 1 40 -12 32 -25 24 rrcurveto
            return
          </CharString>
          <CharString index="229">
            568 161 rmoveto
            3 47 -15 34 -31 23 -668 callgsubr
            return
          </CharString>
          <CharString index="230">
            -61 -33 -51 -31 -69 hhcurveto
            -74 369 callsubr
            23 747 callgsubr
            19 23 5 25 hhcurveto
            69 52 -19 -38 33 hvcurveto
            return
          </CharString>
          <CharString index="231">
            480 callsubr
            30 3 3 hhcurveto
            -531 callgsubr
            -3 hvcurveto
            -1 -20 -10 -17 -20 -15 rrcurveto
            -17 -23 -28 -9 -33 hhcurveto
            return
          </CharString>
          <CharString index="232">
            35 -57 5 -60 1 -51 -32 -5 -80 -1 -69 35 -34 41 -13 -58 -13 -11 -119 53 -45 rrcurveto
            -25 return
          </CharString>
          <CharString index="233">
            191 callsubr
            105 hlineto
            11 -929 callgsubr
            18 hvcurveto
            return
          </CharString>
          <CharString index="234">
            -11 -11 -1 -2 -11 hvcurveto
            -6 -697 callgsubr
            return
          </CharString>
          <CharString index="235">
            24 -24 -28 12 -31 hhcurveto
            -32 -20 -4 -8 -17 hvcurveto
            -4 -66 rlineto
            return
          </CharString>
          <CharString index="236">
            146 3 -73 -342 callgsubr
            return
          </CharString>
          <CharString index="237">
            -567 callsubr
            3 hvcurveto
            return
          </CharString>
          <CharString index="238">
            36 793 callgsubr
            12 hvcurveto
            return
          </CharString>
          <CharString index="239">
            62 18 callsubr
            return
          </CharString>
          <CharString index="240">
            -970 callsubr
            14 164 callsubr
            35 -186 callgsubr
            5 69 -15 53 574 callgsubr
            40 20 -27 -54 1 hvcurveto
            19 -12 -785 callgsubr
            -2 -40 rrcurveto
            -88 -7 39 568 callgsubr
            28 31 16 39 4 46 rrcurveto
            return
          </CharString>
          <CharString index="241">
            959 -222 callsubr
            -40 22 -55 hhcurveto
            -618 hlineto
            -6 -72 rlineto
            220 hlineto
            21 22 -4 -24 -3 hvcurveto
            -25 -22 -5 -32 vhcurveto
            -124 hlineto
            20 -74 rlineto
            123 hlineto
            9 -3 7 -3 7 -5 rrcurveto
            25 -17 10 -34 -72 129 callsubr
            return
          </CharString>
          <CharString index="242">
            -104 callgsubr
            -113 263 rmoveto
            -35 -3 -11 -18 -17 hhcurveto
            -17 -12 26 27 37 12 18 20 -644 callsubr
            -33 -11 -20 -20 -19 -8 20 40 5 vhcurveto
            25 1 10 674 callgsubr
            return
          </CharString>
          <CharString index="243">
            635 callsubr
            1 32 -21 24 -31 13 -11 5 -11 5 -11 3 -12 3 rcurveline
            -2 hlineto
            -10 2 -4 1 -4 2 -3 2 rlinecurve
            -16 9 -16 13 8 25 rrcurveto
            17 3 15 12 32 hhcurveto
            73 29 -65 -53 hvcurveto
            52 hlineto
            5 88 142 -684 callsubr
            -57 31 -106 -35 -11 -99 -13 -148 151 -40 89 97 return
          </CharString>
          <CharString index="244">
            495 684 rmoveto
            -371 hlineto
            -44 -30 -40 -51 -3 hvcurveto
            -3 -28 23 -31 17 -5 -21 -8 -12 -22 -3 -35 -2 -18 4 -16 660 callsubr
            -38 13 -29 30 -21 26 -986 callsubr
            return
          </CharString>
          <CharString index="245">
            -244 -107 callsubr
            return
          </CharString>
          <CharString index="246">
            43 -84 hhcurveto
            -88 -62 -57 -101 -7 hvcurveto
            -4 -43 15 -50 20 -17 rrcurveto
            120 hlineto
            -11 7 -10 14 -9 21 -12 31 -5 27 3 36 rrcurveto
            33 3 17 29 21 hhcurveto
            24 12 -17 -35 -3 -1 -19 -3 -34 hvcurveto
            -72 -6 43 -36 92 hhcurveto
            59 51 23 47 44 hvcurveto
            41 45 23 63 6 81 rrcurveto
            -302 156 rmoveto
            -35 -2 -13 -17 -24 hhcurveto
            -29 -13 18 35 3 hvcurveto
            return
          </CharString>
          <CharString index="247">
            rrcurveto
            13 -23 -27 7 -29 hhcurveto
            -140 15 -115 -9 24 hvcurveto
            -228 hlineto
            -5 -65 rlineto
            318 hlineto
            83 43 31 61 5 hvcurveto
            return
          </CharString>
          <CharString index="248">
            hvcurveto
            -927 callgsubr
            -713 callsubr
            return
          </CharString>
          <CharString index="249">
            -23 -13 -16 -11 -18 -609 callsubr
            3 hvcurveto
            return
          </CharString>
          <CharString index="250">
            hhcurveto
            -33 -16 17 35 -437 callgsubr
            return
          </CharString>
          <CharString index="251">
            -41 -82 hvcurveto
            -25 vlineto
            -7 return
          </CharString>
          <CharString index="252">
            -43 -38 -8 -15 -32 hvcurveto
            -39 -17 -21 -27 -1 -37 -3 -32 13 -24 27 -17 rrcurveto
            -15 21 28 -8 714 callsubr
            8 17 27 hvcurveto
            27 17 14 22 3 218 callsubr
            15 -6 -86 -37 -48 -77 -9 -117 rlinecurve
            -2 callgsubr
            return
          </CharString>
          <CharString index="253">
            32 14 -19 -39 -4 hvcurveto
            46 callgsubr
            -759 -152 -533 callsubr
          </CharString>
          <CharString index="254">
            20 64 53 32 72 -286 callsubr
            41 31 22 43 3 54 return
          </CharString>
          <CharString index="255">
            -2 -30 8 -28 17 -27 rrcurveto
            -26 19 24 -13 29 hhcurveto
            40 45 27 31 15 hvcurveto
            11 -25 3 -27 -27 vvcurveto
            -43 -9 -44 -17 -45 vhcurveto
            -53 -23 -29 -26 -36 hhcurveto
            -37 -17 24 47 4 hvcurveto
            return
          </CharString>
          <CharString index="256">
            -576 callsubr
            116 82 -372 callsubr
            return
          </CharString>
          <CharString index="257">
            rmoveto
            -73 -5 -22 -36 -39 hhcurveto
            -37 -22 37 51 3 hvcurveto
            2 22 9 24 15 27 return
          </CharString>
          <CharString index="258">
            rmoveto
            -33 157 callsubr
            -19 -8 17 34 2 hvcurveto
            30 3 384 callgsubr
            return
          </CharString>
          <CharString index="259">
            -6 -118 callgsubr
            -31 -33 13 -36 hhcurveto
            -68 -62 -11 -51 -25 hvcurveto
            return
          </CharString>
          <CharString index="260">
            -2 -41 rlineto
            98 hlineto
            9 87 137 30 2 -103 rrcurveto
            505 callgsubr
            return
          </CharString>
          <CharString index="261">
            -696 callsubr
            -3 -45 -15 -38 -27 -31 rrcurveto
            -28 -23 return
          </CharString>
          <CharString index="262">
            487 callgsubr
            68 -12 53 -31 39 return
          </CharString>
          <CharString index="263">
            -127 -284 rmoveto
            4 28 -21 24 -31 51 return
          </CharString>
          <CharString index="264">
            hvcurveto
            -251 callgsubr
            return
          </CharString>
          <CharString index="265">
            hlineto
            33 -724 callsubr
            return
          </CharString>
          <CharString index="266">
            -703 callgsubr
            231 return
          </CharString>
          <CharString index="267">
            -630 -106 callsubr
            return
          </CharString>
          <CharString index="268">
            32 10 -24 -48 hvcurveto
            -42 441 rmoveto
            -28 -11 -15 -15 -17 -8 15 29 3 vhcurveto
            29 9 14 17 15 7 -23 -21 vhcurveto
            endchar
          </CharString>
          <CharString index="269">
            543 527 rmoveto
            112 -85 6 -81 vhcurveto
            -278 hlineto
            -4 -70 rlineto
            326 hlineto
            35 16 -18 -36 -3 493 callsubr
            -75 -4 rcurveline
            727 callgsubr
            0 -10 hhcurveto
            -177 -95 -87 -173 -14 hvcurveto
            -440 callgsubr
            -140 callgsubr
            30 -18 49 hhcurveto
            55 44 23 46 33 hvcurveto
            return
          </CharString>
          <CharString index="270">
            rmoveto
            -73 -25 -55 -43 -85 hhcurveto
            -60 -98 43 73 3 -650 callgsubr
            -57 42 -50 56 -31 rrcurveto
            -27 45 62 -6 -635 callgsubr
            return
          </CharString>
          <CharString index="271">
            -353 callgsubr
            1 38 3 15 hvcurveto
            return
          </CharString>
          <CharString index="272">
            1 -687 callsubr
            -73 -24 -39 return
          </CharString>
          <CharString index="273">
            -33 -800 callsubr
            return
          </CharString>
          <CharString index="274">
            rlineto
            800 callgsubr
            return
          </CharString>
          <CharString index="275">
            -94 callsubr
            -29 19 135 callsubr
            60 51 19 37 43 -623 callgsubr
            5 90 -24 64 -53 39 5 5 4 4 3 5 17 24 2 34 -21 36 rrcurveto
            239 hlineto
            34 16 -24 -47 -1 hvcurveto
            -89 51 -86 -73 -11 -72 -27 -200 180 -21 91 110 32 39 13 55 4 53 rrcurveto
            return
          </CharString>
          <CharString index="276">
            -55 -33 -881 callsubr
            return
          </CharString>
          <CharString index="277">
            -42 -26 -56 -6 -70 -630 callsubr
            return
          </CharString>
          <CharString index="278">
            rmoveto
            5 97 73 4 -11 -103 -8 -100 -62 11 3 91 rrcurveto
            return
          </CharString>
          <CharString index="279">
            -627 callgsubr
            -141 -11 return
          </CharString>
          <CharString index="280">
            27 1 19 25 21 hhcurveto
            28 710 callgsubr
            -3 -51 -26 -14 -77 -9 -23 -3 -405 callgsubr
            -3 -38 -3 -51 12 -38 28 -27 rrcurveto
            -26 26 417 callsubr
            51 53 20 36 24 hvcurveto
            -17 2 34 -39 48 hhcurveto
            59 40 22 45 35 hvcurveto
            36 44 21 54 7 76 8 61 -5 56 -31 45 -11 17 -11 12 -13 7 return
          </CharString>
          <CharString index="281">
            hhcurveto
            -28 -24 -3 -5 -21 hvcurveto
            -9 -70 rlineto
            743 callsubr
            5 22 hhcurveto
            68 35 -43 -53 19 hvcurveto
            return
          </CharString>
          <CharString index="282">
            hlineto
            34 16 -18 -36 -2 hvcurveto
            return
          </CharString>
          <CharString index="283">
            -131 -11 -36 -65 -61 hhcurveto
            return
          </CharString>
          <CharString index="284">
            47 -562 callsubr
            return
          </CharString>
          <CharString index="285">
            -686 callgsubr
            -587 361 rmoveto
            -32 -2 -11 -16 -19 hhcurveto
            -21 -9 256 callgsubr
            32 11 16 23 21 9 -15 -31 -3 vhcurveto
            endchar
          </CharString>
          <CharString index="286">
            -61 -172 22 95 -11 hvcurveto
            800 callsubr
            -139 32 227 -33 121 hhcurveto
            129 197 773 callgsubr
            53 hvcurveto
            return
          </CharString>
          <CharString index="287">
            -954 callsubr
            13 0 14 3 12 vhcurveto
            return
          </CharString>
          <CharString index="288">
            -333 callsubr
            48 -90 -68 -8 -74 -26 -198 176 -23 93 109 32 41 15 52 1 55 return
          </CharString>
          <CharString index="289">
            -1 347 callsubr
            7 88 139 -684 callsubr
            return
          </CharString>
          <CharString index="290">
            139 -778 callgsubr
            return
          </CharString>
          <CharString index="291">
            -80 hhcurveto
            -45 767 callsubr
            -27 hvcurveto
            return
          </CharString>
          <CharString index="292">
            64 -64 188 -188 return
          </CharString>
          <CharString index="293">
            46 -40 -44 6 -40 hhcurveto
            -33 -683 callgsubr
            29 24 -14 -40 20 hvcurveto
            17 -35 4 -42 -1 -33 -4 -45 -11 -38 -25 -31 rrcurveto
            -31 -22 -24 -15 -26 hhcurveto
            -34 -16 27 53 3 hvcurveto
            1 3 1 -747 callgsubr
            -8 53 -59 99 hhcurveto
            52 -385 callgsubr
            return
          </CharString>
          <CharString index="294">
            -32 callsubr
            -3 -55 9 -38 19 -23 rrcurveto
            -27 21 42 return
          </CharString>
          <CharString index="295">
            798 callsubr
            hvcurveto
            return
          </CharString>
          <CharString index="296">
            588 516 rmoveto
            61 5 -26 31 -56 hhcurveto
            -266 -134 callsubr
            -1 hvcurveto
            -14 -7 -10 -15 -5 vhcurveto
            -2 -8 -12 450 callsubr
            11 -32 4 -35 -3 -39 -515 callgsubr
            -21 -346 callgsubr
            return
          </CharString>
          <CharString index="297">
            859 -224 callgsubr
            -22 60 -43 35 vhcurveto
            25 -29 -37 12 -46 hhcurveto
            -12 -12 -1 -3 -137 callgsubr
            -219 callsubr
            -385 callsubr
            -3 -44 -15 -38 -27 -32 rrcurveto
            -28 -24 -26 -14 -28 hhcurveto
            -33 -28 34 31 hvcurveto
            33 5 22 27 vvcurveto
            return
          </CharString>
          <CharString index="298">
            rmoveto
            3 97 75 4 -11 -103 -10 -97 -60 8 3 91 rrcurveto
            endchar
          </CharString>
          <CharString index="299">
            835 217 rmoveto
            13 1 12 11 vvcurveto
            79 -22 55 -43 33 vhcurveto
            24 -448 callgsubr
            -10 hvcurveto
            -4 -69 375 callsubr
            -43 -85 hvcurveto
            -9 -1 -11 -12 vvcurveto
            -5 -42 -15 -35 -25 -28 rrcurveto
            -27 -25 -26 -13 -27 hhcurveto
            -33 -22 13 25 -11 hvcurveto
            -4 7 737 callgsubr
            15 -4 26 rcurveline
            return
          </CharString>
          <CharString index="300">
            -143 callsubr
            4 53 8 1 8 3 9 4 rlinecurve
            47 20 36 40 2 50 5 81 -27 35 -47 1 rrcurveto
            1 -2 -6 1 -11 hhcurveto
            -338 -883 callgsubr
            return
          </CharString>
          <CharString index="301">
            hhcurveto
            -12 -11 -1 -2 -10 hvcurveto
            -5 518 callgsubr
            -70 -13 -123 -88 -67 -10 51 48 -2 hvcurveto
            16 vlineto
            -2 21 rlineto
            return
          </CharString>
          <CharString index="302">
            19 29 vvcurveto
            -688 callgsubr
            return
          </CharString>
          <CharString index="303">
            -710 callsubr
            -1 return
          </CharString>
          <CharString index="304">
            -11 -812 callsubr
            return
          </CharString>
          <CharString index="305">
            -650 callgsubr
            -59 42 -49 56 -31 rrcurveto
            return
          </CharString>
          <CharString index="306">
            hhcurveto
            55 44 -810 callgsubr
            return
          </CharString>
          <CharString index="307">
            383 callgsubr
            2 740 callgsubr
            vhcurveto
            return
          </CharString>
          <CharString index="308">
            rlineto
            -1 11 1 4 21 hvcurveto
            return
          </CharString>
          <CharString index="309">
            -799 callgsubr
            111 return
          </CharString>
          <CharString index="310">
            286 callsubr
            -26 17 34 return
          </CharString>
          <CharString index="311">
            -107 hlineto
            -5 -49 rlineto
            -51 return
          </CharString>
          <CharString index="312">
            635 684 rmoveto
            -220 -290 callgsubr
            -32 25 -29 21 -1 hvcurveto
            -19 -5 -26 -18 -1 -36 rrcurveto
            -39 23 -24 30 -8 vhcurveto
            -3 9 9 -1 9 hhcurveto
            5 -1 6 -1 5 -2 16 -5 15 -13 11 -27 12 -33 5 -35 -3 -39 -4 -45 -11 -40 -13 -31 -251 callsubr
            -32 -18 34 41 3 hvcurveto
            return
          </CharString>
          <CharString index="313">
            37 140 hstemhm
            17 120 259 -930 callsubr
            return
          </CharString>
          <CharString index="314">
            -918 callgsubr
            53 hhcurveto
            return
          </CharString>
          <CharString index="315">
            -7 21 -3 223 callsubr
            47 hvcurveto
            57 30 31 42 4 53 3 47 -14 34 -31 23 rrcurveto
            20 -25 -33 10 -42 794 callsubr
            -16 -15 -567 callsubr
            2 hvcurveto
            37 3 32 19 61 hhcurveto
            47 205 callsubr
            return
          </CharString>
          <CharString index="316">
            -414 callgsubr
            -23 -40 -28 hhcurveto
            -34 -15 29 59 5 -49 callgsubr
            114 hlineto
            -46 -11 -32 -60 -3 -43 rrcurveto
            -90 -8 67 -65 88 hhcurveto
            59 26 26 27 31 hvcurveto
            -27 19 21 -26 52 hhcurveto
            130 52 104 116 11 hvcurveto
            return
          </CharString>
          <CharString index="317">
            -34 10 -29 24 -24 -226 callsubr
            return
          </CharString>
          <CharString index="318">
            8 45 6 34 7 27 rrcurveto
            11 59 4 47 43 vvcurveto
            return
          </CharString>
          <CharString index="319">
            -11 -736 callsubr
            return
          </CharString>
          <CharString index="320">
            18 5 11 rrcurveto
            -25 19 24 787 callsubr
            return
          </CharString>
          <CharString index="321">
            -426 callsubr
            4 return
          </CharString>
          <CharString index="322">
            -662 callgsubr
            387 278 -99 callsubr
          </CharString>
          <CharString index="323">
            rmoveto
            3 29 -17 34 -36 41 -47 -39 -24 -34 756 callsubr
            -36 -3 29 -27 33 hhcurveto
            379 callsubr
            4 hvcurveto
            return
          </CharString>
          <CharString index="324">
            80 671 callgsubr
            13 110 155 302 callsubr
            rrcurveto
            -97 65 -75 -100 -111 vvcurveto
            return
          </CharString>
          <CharString index="325">
            -621 callsubr
            rlinecurve
            return
          </CharString>
          <CharString index="326">
            54 callsubr
            45 3 20 23 37 hhcurveto
            40 18 -27 -54 -3 -766 callgsubr
            return
          </CharString>
          <CharString index="327">
            6 48 rlineto
            -103 hlineto
            -4 -41 callgsubr
            return
          </CharString>
          <CharString index="328">
            2 -21 4 -16 9 1 27 -566 callgsubr
            75 55 -6 -13 35 hvcurveto
            return
          </CharString>
          <CharString index="329">
            -11 13 -8 16 -5 19 -3 return
          </CharString>
          <CharString index="330">
            -384 callsubr
            -16 -3 return
          </CharString>
          <CharString index="331">
            10 -41 794 callsubr
            return
          </CharString>
          <CharString index="332">
            60 -12 47 -23 35 return
          </CharString>
          <CharString index="333">
            -872 callsubr
            -34 -79 64 -63 56 -13 2 -1 2 0 1 -1 9 -4 8 -6 6 -8 27 -35 1 -50 -2 -42 -155 callsubr
            return
          </CharString>
          <CharString index="334">
            -104 -8 283 callsubr
            -35 -17 19 37 6 1 10 1 15 hvcurveto
            1 15 2 12 1 7 rrcurveto
            3 15 0 -829 callsubr
            -4 -165 callsubr
            44 22 -880 callsubr
            0 346 callgsubr
            -104 -8 -25 -52 -42 hhcurveto
            return
          </CharString>
          <CharString index="335">
            rmoveto
            2 29 -8 23 -18 15 rrcurveto
            14 -17 -22 7 -26 hhcurveto
            -8 -7 0 1 -6 hvcurveto
            -2 -37 rlineto
            16 hlineto
            25 14 -20 -31 -3 hvcurveto
            -3 -24 -1 -16 -4 -8 rrcurveto
            -16 -5 -10 -8 -15 hhcurveto
            -18 -9 10 20 hvcurveto
            13 -45 -13 vlineto
            -19 -2 -11 -9 -21 hhcurveto
            -20 -10 12 24 7 0 9 4 8 hvcurveto
            return
          </CharString>
          <CharString index="336">
            -39 -3 -10 -19 -18 hhcurveto
            -21 -9 18 36 4 hvcurveto
            40 1 24 27 28 hhcurveto
            16 hlineto
            4 59 rlineto
            -199 hlineto
            -2 -63 rlineto
            73 hlineto
            -26 -21 -14 -25 -3 -31 rrcurveto
            -52 -1 40 -40 64 hhcurveto
            48 30 17 33 11 hvcurveto
            -33 3 774 callsubr
            hhcurveto
            38 33 18 36 28 hvcurveto
            24 37 19 45 3 57 rrcurveto
            return
          </CharString>
          <CharString index="337">
            -1 -7 -4 -6 -7 -3 rrcurveto
            16 -39 -264 callsubr
            -571 callsubr
            116 hlineto
            1 16 2 13 4 8 rrcurveto
            return
          </CharString>
          <CharString index="338">
            79 -26 4 -55 -5 -73 rrcurveto
            72 387 callgsubr
            153 -183 callgsubr
            -99 64 -74 -99 -111 vvcurveto
            1 -154 256 -4 23 276 rrcurveto
            return
          </CharString>
          <CharString index="339">
            -25 21 -11 21 1 23 rrcurveto
            -118 hlineto
            -3 -39 22 -34 47 -29 rrcurveto
            -36 57 63 -18 68 hhcurveto
            68 64 13 26 60 hvcurveto
            66 29 35 39 3 49 rrcurveto
            return
          </CharString>
          <CharString index="340">
            4 4 -1 -1 4 hvcurveto
            19 hlineto
            42 32 12 23 22 hvcurveto
            20 21 10 21 3 27 3 29 -6 24 -15 21 111 -11 18 -147 -5 -90 rrcurveto
            -27 return
          </CharString>
          <CharString index="341">
            45 4 -23 22 -37 hhcurveto
            -33 -12 -32 -33 -3 hvcurveto
            -3 -29 21 -31 33 -44 35 46 17 34 1 22 rrcurveto
            return
          </CharString>
          <CharString index="342">
            -73 -5 -21 -36 -38 hhcurveto
            -37 -22 37 51 1 hvcurveto
            3 22 8 24 15 27 rrcurveto
            15 12 24 42 26 hhcurveto
            return
          </CharString>
          <CharString index="343">
            -572 callgsubr
            41 3 -409 callgsubr
            -5 hvcurveto
            return
          </CharString>
          <CharString index="344">
            hlineto
            33 17 -217 callsubr
            -7 -9 -12 -5 rrcurveto
            return
          </CharString>
          <CharString index="345">
            3 hvcurveto
            30 2 9 15 17 hhcurveto
            16 8 -15 -30 -1 hvcurveto
            return
          </CharString>
          <CharString index="346">
            11 rrcurveto
            1 -770 callsubr
            return
          </CharString>
          <CharString index="347">
            -91 91 -75 75 -55 -756 callgsubr
            return
          </CharString>
          <CharString index="348">
            5 hvcurveto
            49 3 17 24 32 hhcurveto
            31 return
          </CharString>
          <CharString index="349">
            5 69 -14 56 -35 41 return
          </CharString>
          <CharString index="350">
            253 callgsubr
            319 return
          </CharString>
          <CharString index="351">
            2 38 168 callsubr
            -51 -5 -17 -26 379 callgsubr
            27 53 748 callgsubr
            49 24 28 43 5 59 5 45 52 6 55 3 33 -7 29 -18 24 rrcurveto
            25 -19 -32 12 -43 hhcurveto
            -93 -63 -45 -76 -11 hvcurveto
            -4 -19 0 -17 3 -8 420 callgsubr
            -1 19 -1 12 1 19 rrcurveto
            return
          </CharString>
          <CharString index="352">
            -1094 callsubr
            6 91 return
          </CharString>
          <CharString index="353">
            52 rlineto
            17 -9 -20 8 -31 hhcurveto
            -80 -43 -35 -70 -5 hvcurveto
            -1 -18 return
          </CharString>
          <CharString index="354">
            -35 20 -41 9 -48 -3 rrcurveto
            -1 return
          </CharString>
          <CharString index="355">
            44 88 7 hvcurveto
            return
          </CharString>
          <CharString index="356">
            185 callsubr
            41 31 22 43 3 54 -738 callsubr
            11 -2 10 -5 9 rrcurveto
            163 hlineto
            40 20 -27 -55 -307 callgsubr
            -72 -47 return
          </CharString>
          <CharString index="357">
            336 271 callsubr
            1 15 12 29 -503 callgsubr
            5 66 rlineto
            12 -13 -21 6 -29 hhcurveto
            return
          </CharString>
          <CharString index="358">
            rmoveto
            -27 -10 -14 -20 -20 -9 13 27 3 vhcurveto
            29 3 10 15 17 hhcurveto
            20 9 -14 -29 -3 hvcurveto
            endchar
          </CharString>
          <CharString index="359">
            -15 20 27 -7 34 -442 callgsubr
            44 47 24 54 4 72 rrcurveto
            return
          </CharString>
          <CharString index="360">
            rmoveto
            5 69 -23 51 -52 35 39 25 18 51 4 47 3 49 -9 36 -21 23 return
          </CharString>
          <CharString index="361">
            -9 -9 1 -9 -504 callsubr
            return
          </CharString>
          <CharString index="362">
            hhcurveto
            -57 -50 17 35 -43 hvcurveto
            -40 -48 54 -34 return
          </CharString>
          <CharString index="363">
            rmoveto
            -37 -3 -512 callsubr
            return
          </CharString>
          <CharString index="364">
            -18 -926 callsubr
            return
          </CharString>
          <CharString index="365">
            30 -45 -90 -616 callgsubr
            return
          </CharString>
          <CharString index="366">
            -4 -22 -12 -17 -13 return
          </CharString>
          <CharString index="367">
            -543 callgsubr
            20 28 9 34 -7 29 -1 7 -3 8 -3 7 rrcurveto
            181 hlineto
            40 21 -27 -54 -742 callsubr
            -3 -40 rrcurveto
            -88 -6 39 -44 85 hhcurveto
            43 38 18 36 32 hvcurveto
            30 34 16 39 3 43 rrcurveto
            return
          </CharString>
          <CharString index="368">
            -673 callsubr
            657 -2 -751 callgsubr
          </CharString>
          <CharString index="369">
            rmoveto
            -36 245 callgsubr
            -11 -9 7 13 -5 hvcurveto
            -5 11 -1 10 1 11 rrcurveto
            36 3 12 18 return
          </CharString>
          <CharString index="370">
            67 -67 201 -181 -21 396 69 179 -20 hstemhm
            245 94 125 108 180 96 return
          </CharString>
          <CharString index="371">
            59 3 17 30 29 hhcurveto
            17 15 -31 -55 -4 hvcurveto
            return
          </CharString>
          <CharString index="372">
            -294 callgsubr
            -16 -650 callsubr
            return
          </CharString>
          <CharString index="373">
            3 -3 3 -916 callgsubr
            return
          </CharString>
          <CharString index="374">
            -539 callgsubr
            vhcurveto
            return
          </CharString>
          <CharString index="375">
            51 -13 -48 26 -81 hhcurveto
            -96 -63 -60 -92 -8 -842 callgsubr
            11 13 6 13 hhcurveto
            -873 callgsubr
            -24 -16 -32 -3 -41 rrcurveto
            -103 -9 43 -52 96 hhcurveto
            return
          </CharString>
          <CharString index="376">
            hhcurveto
            -13 -11 -1 -2 -9 242 callsubr
            2 0 1 4 -213 callgsubr
            -44 -89 -616 callgsubr
            -91 -63 -1 73 61 6 hvcurveto
            return
          </CharString>
          <CharString index="377">
            46 3 58 3 33 return
          </CharString>
          <CharString index="378">
            12 32 64 hvcurveto
            return
          </CharString>
          <CharString index="379">
            -244 callsubr
            155 hmoveto
            -273 callgsubr
          </CharString>
          <CharString index="380">
            10 -16 -13 12 -32 hhcurveto
            -47 -34 -47 -33 -24 hvcurveto
            endchar
          </CharString>
          <CharString index="381">
            553 -3 -722 callsubr
            return
          </CharString>
          <CharString index="382">
            -376 callgsubr
            28 17 15 22 1 25 7 -12 4 153 callsubr
            -4 -44 -26 -84 hhcurveto
            return
          </CharString>
          <CharString index="383">
            7 200 callgsubr
            -3 -644 callgsubr
            return
          </CharString>
          <CharString index="384">
            -1103 callsubr
            54 59 100 hhcurveto
            return
          </CharString>
          <CharString index="385">
            1 -965 callgsubr
            return
          </CharString>
          <CharString index="386">
            -7 -5 -12 -3 -18 hhcurveto
            -27 -13 19 37 2 hvcurveto
            52 5 16 26 27 hhcurveto
            return
          </CharString>
          <CharString index="387">
            -1 -41 rlineto
            98 -574 callgsubr
            return
          </CharString>
          <CharString index="388">
            252 callgsubr
            -33 -13 -20 -17 -20 -8 20 40 4 vhcurveto
            25 3 9 12 return
          </CharString>
          <CharString index="389">
            1 hvcurveto
            19 -13 -785 callgsubr
            return
          </CharString>
          <CharString index="390">
            hvcurveto
            16 -24 8 -34 -45 vvcurveto
            -38 -5 -40 -11 -41 vhcurveto
            -54 -15 return
          </CharString>
          <CharString index="391">
            -73 rrcurveto
            72 -418 callsubr
            return
          </CharString>
          <CharString index="392">
            -12 -2 -15 -1 -17 136 callgsubr
            1 31 2 22 return
          </CharString>
          <CharString index="393">
            4 -735 callgsubr
            2 31 1 return
          </CharString>
          <CharString index="394">
            rmoveto
            19 15 19 13 23 hhcurveto
            22 6 -8 -8 14 hvcurveto
            return
          </CharString>
          <CharString index="395">
            -366 callgsubr
            -387 callgsubr
            return
          </CharString>
          <CharString index="396">
            59 -29 rrcurveto
            -27 45 61 -7 69 hhcurveto
            return
          </CharString>
          <CharString index="397">
            17 35 hvcurveto
            11 3 28 13 vvcurveto
            return
          </CharString>
          <CharString index="398">
            -4 -45 -13 -38 -23 -31 rrcurveto
            return
          </CharString>
          <CharString index="399">
            -501 callsubr
            -39 47 return
          </CharString>
          <CharString index="400">
            rmoveto
            63 -45 29 -55 vhcurveto
            -267 -987 callgsubr
            239 hlineto
            34 -345 callgsubr
            -7 284 callgsubr
            -2 -8 -12 -1 -17 hhcurveto
            -68 hlineto
            -4 -65 73 1 rlineto
            67 73 22 89 hvcurveto
            -51 -600 -313 callsubr
            return
          </CharString>
          <CharString index="401">
            hvcurveto
            74 6 38 37 69 hhcurveto
            5 68 rlineto
            -292 hlineto
            -6 -640 callgsubr
            30 hvcurveto
            -35 15 31 -18 46 hhcurveto
            111 68 92 161 13 hvcurveto
            -146 -266 rmoveto
            return
          </CharString>
          <CharString index="402">
            -314 callgsubr
            388 233 117 callgsubr
            -16 -3 -24 -3 -18 27 1 44 3 72 79 29 -5 -105 rrcurveto
            -472 42 -471 callgsubr
          </CharString>
          <CharString index="403">
            rmoveto
            -58 -13 -35 38 28 vvcurveto
            -568 callsubr
            -3 3 -96 -75 -21 -525 callgsubr
          </CharString>
          <CharString index="404">
            hstem
            275 200 rmoveto
            21 37 71 123 736 callsubr
            73 125 rlinecurve
            -138 hlineto
            -43 -86 -43 -87 -42 -81 -18 -38 rlinecurve
            -15 49 -26 131 -27 112 rrcurveto
            -136 hlineto
            37 -125 39 -120 37 -123 11 -37 rcurveline
            -28 -200 380 callsubr
            return
          </CharString>
          <CharString index="405">
            -16 35 -8 24 1 vvcurveto
            -9 27 -4 28 1 31 3 27 7 22 13 746 callsubr
            9 12 8 352 callgsubr
            -27 21 41 -11 -307 callsubr
            42 45 24 62 5 77 rrcurveto
            return
          </CharString>
          <CharString index="406">
            rmoveto
            -36 callsubr
            return
          </CharString>
          <CharString index="407">
            16 -531 callsubr
            return
          </CharString>
          <CharString index="408">
            -806 callgsubr
            rrcurveto
            59 -44 44 -29 11 vhcurveto
            -16 11 4 16 11 9 19 16 41 -34 10 -13 2 76 rcurveline
            10 -10 -17 5 -25 hhcurveto
            -45 -49 -25 -45 -8 hvcurveto
            return
          </CharString>
          <CharString index="409">
            -655 callgsubr
            5 21 2 23 -1036 callgsubr
            return
          </CharString>
          <CharString index="410">
            -213 callsubr
            39 10 -43 -88 hvcurveto
            307 48 578 callgsubr
            -4 -24 -4 -19 29 3 44 rrcurveto
            5 72 73 29 -105 vvcurveto
            -611 32 rmoveto
            582 callgsubr
            562 callsubr
            8 -23 -29 -5 hvcurveto
            endchar
          </CharString>
          <CharString index="411">
            -109 13 -78 -23 3 -133 5 -140 167 -34 75 78 37 40 23 72 5 72 return
          </CharString>
          <CharString index="412">
            582 callgsubr
            -17 -8 16 32 1 hvcurveto
            33 11 17 21 20 8 -23 -29 -5 vhcurveto
            return
          </CharString>
          <CharString index="413">
            2 29 -11 25 -25 23 rrcurveto
            -896 callsubr
            return
          </CharString>
          <CharString index="414">
            hlineto
            -691 callgsubr
            return
          </CharString>
          <CharString index="415">
            5 59 -13 52 -31 45 -20 33 -22 19 -23 5 rrcurveto
            3 244 callsubr
            -17 hlineto
            -23 -12 -6 -21 -16 1 -18 27 -7 hvcurveto
            4 -2 rlineto
            -1 5 4 0 5 hhcurveto
            22 -1 15 6 9 13 9 27 2 13 -20 8 -55 18 4 69 67 -1 rrcurveto
            return
          </CharString>
          <CharString index="416">
            -181 callgsubr
            -79 hhcurveto
            -69 -43 -43 -53 -4 hvcurveto
            -3 775 callgsubr
            21 -18 rrcurveto
            -14 17 20 -7 23 hhcurveto
            11 11 3 5 12 hvcurveto
            return
          </CharString>
          <CharString index="417">
            -140 callgsubr
            164 callsubr
            704 callgsubr
            return
          </CharString>
          <CharString index="418">
            -759 callsubr
            41 71 22 64 5 59 rrcurveto
            return
          </CharString>
          <CharString index="419">
            20 1 18 15 vvcurveto
            -1 0 -2 -1 -2 vhcurveto
            2 0 729 callgsubr
            vhcurveto
            return
          </CharString>
          <CharString index="420">
            -40 -53 -5 hvcurveto
            -1 -61 35 -42 67 12 rrcurveto
            return
          </CharString>
          <CharString index="421">
            -120 callgsubr
            -3 hvcurveto
            return
          </CharString>
          <CharString index="422">
            239 -228 72 -1 -20 112 65 hstemhm
            return
          </CharString>
          <CharString index="423">
            -594 callsubr
            32 32 11 return
          </CharString>
          <CharString index="424">
            4 54 rlineto
            793 callsubr
            -4 785 callsubr
            return
          </CharString>
          <CharString index="425">
            -37 27 -28 32 708 callgsubr
            vhcurveto
            return
          </CharString>
          <CharString index="426">
            -36 -1 26 381 callsubr
            return
          </CharString>
          <CharString index="427">
            24 7 792 callgsubr
            return
          </CharString>
          <CharString index="428">
            -92 -180 callsubr
            return
          </CharString>
          <CharString index="429">
            108 callsubr
            43 -9 35 -17 26 vhcurveto
            183 hlineto
            48 28 -30 -40 5 hvcurveto
            15 -25 -23 8 -20 hhcurveto
            -32 -29 -11 -22 -25 hvcurveto
            -29 -27 -16 -33 -3 -40 -3 -34 -140 callsubr
            45 39 19 37 32 hvcurveto
            return
          </CharString>
          <CharString index="430">
            525 605 rmoveto
            -113 hlineto
            -44 -313 -1 -27 -2 -29 -4 -11 rlinecurve
            -1 hlineto
            -47 128 -45 124 -45 128 rrcurveto
            -115 -247 callgsubr
            112 hlineto
            42 313 5 29 2 27 1 12 rlinecurve
            142 -381 rlineto
            113 hlineto
            return
          </CharString>
          <CharString index="431">
            24 -31 -37 12 -44 2 callsubr
            return
          </CharString>
          <CharString index="432">
            17 -9 -19 19 hvcurveto
            4 66 rlineto
            19 -27 -25 9 -24 hhcurveto
            return
          </CharString>
          <CharString index="433">
            rmoveto
            5 97 71 4 -9 -103 -8 -100 -62 11 3 91 rrcurveto
            return
          </CharString>
          <CharString index="434">
            -6 -17 -1041 callsubr
            return
          </CharString>
          <CharString index="435">
            -6 -1 -6 vhcurveto
            return
          </CharString>
          <CharString index="436">
            -459 callsubr
            -13 450 callsubr
            12 -32 4 -35 -4 -39 -3 -48 -8 -39 77 callgsubr
            return
          </CharString>
          <CharString index="437">
            53 -8 50 38 -3 62 -3 53 -35 -899 callsubr
            29 48 -12 53 hhcurveto
            73 58 10 32 36 hvcurveto
            5 3 4 4 4 5 9 -15 11 -12 15 -8 rrcurveto
            return
          </CharString>
          <CharString index="438">
            -682 -585 53 112 -20 hstem
            -164 -420 rmoveto
            -75 -25 -55 -37 -85 hhcurveto
            -58 -105 32 73 40 callsubr
            42 -41 59 -29 rrcurveto
            -25 -957 callgsubr
            74 36 27 65 11 20 rrcurveto
            endchar
          </CharString>
          <CharString index="439">
            80 callgsubr
            -213 callsubr
            return
          </CharString>
          <CharString index="440">
            rmoveto
            -48 -4 -17 -24 -31 hhcurveto
            -31 -9 24 47 41 23 32 29 31 13 -24 -48 -4 hvcurveto
            return
          </CharString>
          <CharString index="441">
            -95 1 -4 -48 179 -1 rlineto
            39 21 23 45 4 hvcurveto
            1 9 -2 8 -7 9 rrcurveto
            return
          </CharString>
          <CharString index="442">
            44 3 18 22 34 hhcurveto
            24 31 714 callgsubr
            return
          </CharString>
          <CharString index="443">
            -304 callsubr
            -332 callgsubr
            return
          </CharString>
          <CharString index="444">
            -827 callsubr
            -50 return
          </CharString>
          <CharString index="445">
            31 3 hvcurveto
            -780 callgsubr
            48 32 -9 return
          </CharString>
          <CharString index="446">
            -179 callgsubr
            21 23 hvcurveto
            -24 13 return
          </CharString>
          <CharString index="447">
            29 -952 callgsubr
            return
          </CharString>
          <CharString index="448">
            rrcurveto
            -27 47 60 return
          </CharString>
          <CharString index="449">
            163 -778 callgsubr
            11 -341 callgsubr
            53 hlineto
            11 11 0 1 12 437 callgsubr
            -33 hhcurveto
            -37 -17 50 32 5 hvcurveto
            return
          </CharString>
          <CharString index="450">
            -117 callsubr
            -477 callsubr
            -30 53 -20 41 -14 33 -8 21 rlinecurve
            1 -11 -11 1 -11 hhcurveto
            -30 -26 -13 -27 -21 hvcurveto
            -50 -481 callgsubr
            return
          </CharString>
          <CharString index="451">
            525 rmoveto
            -4 -35 11 -30 return
          </CharString>
          <CharString index="452">
            221 -60 rmoveto
            5 61 -11 46 -26 30 rrcurveto
            31 -25 -28 16 -32 hhcurveto
            -33 hlineto
            -6 -59 rlineto
            1 4 3 1 3 hhcurveto
            6 hlineto
            21 14 -16 -31 9 hvcurveto
            9 -23 3 -30 -4 -32 rrcurveto
            -82 -6 -19 -41 -31 hhcurveto
            -17 -7 16 31 3 hvcurveto
            return
          </CharString>
          <CharString index="453">
            -6 -71 14 -64 34 -59 232 callgsubr
            -1115 callgsubr
            return
          </CharString>
          <CharString index="454">
            -120 -356 -78 callgsubr
            return
          </CharString>
          <CharString index="455">
            5 29 19 37 21 31 -61 19 rcurveline
            -48 -53 -52 -69 -68 vvcurveto
            -39 21 -26 34 48 24 43 39 23 -9 17 -2 17 vhcurveto
            return
          </CharString>
          <CharString index="456">
            -995 callgsubr
            -9 41 -15 19 -27 13 return
          </CharString>
          <CharString index="457">
            hstem
            214 472 rmoveto
            -125 hlineto
            -66 -472 rlineto
            124 hlineto
            return
          </CharString>
          <CharString index="458">
            rmoveto
            6 91 -119 -4 -3 -87 -8 -93 116 0 8 93 rrcurveto
            return
          </CharString>
          <CharString index="459">
            -341 callsubr
            328 hlineto
            return
          </CharString>
          <CharString index="460">
            -895 callsubr
            -57 -22 -43 -44 57 callgsubr
            84 65 302 callgsubr
            7 -18 19 -19 29 -19 rrcurveto
            -24 36 34 -252 callgsubr
            44 hvcurveto
            return
          </CharString>
          <CharString index="461">
            5 -12 19 -16 32 -21 43 -17 25 274 callgsubr
            -27 hvcurveto
            -54 -93 -21 -39 -10 -15 -14 -5 -17 3 rlinecurve
            -18 -709 callgsubr
            -47 -35 -35 -26 -21 -19 rrcurveto
            return
          </CharString>
          <CharString index="462">
            -38 -4 -15 -19 -25 hhcurveto
            -28 712 callsubr
            39 3 17 20 29 hhcurveto
            4 hlineto
            19 -13 9 -22 -1 -32 rrcurveto
            endchar
          </CharString>
          <CharString index="463">
            hhcurveto
            -47 767 callsubr
            -27 hvcurveto
            -27 19 -10 22 7 26 rrcurveto
            -9 9 13 -5 15 hhcurveto
            return
          </CharString>
          <CharString index="464">
            -5 -45 -15 -38 -25 -31 rrcurveto
            -28 -25 -26 -14 -27 -259 callsubr
            -6 return
          </CharString>
          <CharString index="465">
            -259 callgsubr
            99 -82 667 callgsubr
            13 119 return
          </CharString>
          <CharString index="466">
            752 callgsubr
            747 callsubr
            return
          </CharString>
          <CharString index="467">
            33 3 29 17 56 hhcurveto
            return
          </CharString>
          <CharString index="468">
            rmoveto
            -39 -4 -11 -20 -19 hhcurveto
            -22 -9 19 37 3 hvcurveto
            37 3 11 19 20 hhcurveto
            21 10 -18 -35 -3 hvcurveto
            42 248 rmoveto
            -36 -3 -13 -18 -21 hhcurveto
            -21 -9 16 31 3 hvcurveto
            38 3 12 19 21 hhcurveto
            21 10 -17 -33 -3 hvcurveto
            return
          </CharString>
          <CharString index="469">
            4 4 -1 -1 5 hvcurveto
            20 hlineto
            41 32 12 23 23 hvcurveto
            19 21 10 21 4 27 2 29 -7 24 -15 21 111 -11 19 -147 -5 -90 rrcurveto
            -134 -319 rmoveto
            3 27 -16 35 -35 42 -48 -38 -25 -34 -1 -31 rrcurveto
            return
          </CharString>
          <CharString index="470">
            -758 callgsubr
            -14 -25 -29 -474 callgsubr
            return
          </CharString>
          <CharString index="471">
            -49 -11 -20 -29 -33 hhcurveto
            -36 -6 29 49 8 hvcurveto
            48 9 18 30 35 hhcurveto
            35 9 -30 -48 -8 hvcurveto
            61 -1 rmoveto
            79 16 -34 36 -71 hhcurveto
            -73 -47 -36 -79 -12 hvcurveto
            -80 -16 32 -36 73 hhcurveto
            73 47 36 80 12 hvcurveto
            endchar
          </CharString>
          <CharString index="472">
            -65 -165 22 95 -16 -58 callsubr
            -139 31 230 -33 118 hhcurveto
            131 195 773 callgsubr
            53 hvcurveto
            return
          </CharString>
          <CharString index="473">
            23 -29 -38 12 -45 hhcurveto
            -897 callsubr
            24 5 rlineto
            61 30 -45 -90 return
          </CharString>
          <CharString index="474">
            -108 -8 -46 -54 -84 hhcurveto
            -84 -44 63 99 8 hvcurveto
            return
          </CharString>
          <CharString index="475">
            hhcurveto
            -33 -15 32 63 2 hvcurveto
            3 16 2 25 4 35 return
          </CharString>
          <CharString index="476">
            -784 callsubr
            99 60 -60 73 return
          </CharString>
          <CharString index="477">
            -1023 callgsubr
            -37 -23 -23 -18 -25 hhcurveto
            return
          </CharString>
          <CharString index="478">
            63 rlineto
            -120 hlineto
            -17 -7 6 return
          </CharString>
          <CharString index="479">
            -21 156 69 12 63 97 68 return
          </CharString>
          <CharString index="480">
            1 7 -490 callsubr
            return
          </CharString>
          <CharString index="481">
            rrcurveto
            796 callgsubr
            return
          </CharString>
          <CharString index="482">
            5 48 rlineto
            -103 hlineto
            -4 -45 rlineto
            -35 -3 -22 798 callgsubr
            -41 -18 -776 callsubr
            120 8 60 73 104 435 callsubr
            -32 51 rrcurveto
            -48 -48 -25 -23 -31 vvcurveto
            return
          </CharString>
          <CharString index="483">
            -20 -5 -28 -18 1 -35 rrcurveto
            -42 45 -33 35 vhcurveto
            139 hlineto
            7 41 5 18 9 vvcurveto
            -78 hlineto
            -19 -112 callsubr
            13 hvcurveto
            104 hlineto
            10 -269 callsubr
            return
          </CharString>
          <CharString index="484">
            -3 -51 14 -52 28 -44 rrcurveto
            111 hlineto
            -15 36 -12 24 1 vvcurveto
            -9 27 -4 28 1 31 4 27 2 18 13 16 rrcurveto
            17 11 14 12 352 callgsubr
            return
          </CharString>
          <CharString index="485">
            -15 -7 14 28 1 hvcurveto
            25 1 8 12 16 hhcurveto
            16 7 -13 -26 -3 hvcurveto
            endchar
          </CharString>
          <CharString index="486">
            rmoveto
            3 97 74 4 -11 -103 -10 -97 -61 8 5 91 rrcurveto
            endchar
          </CharString>
          <CharString index="487">
            -544 callsubr
            252 callgsubr
            return
          </CharString>
          <CharString index="488">
            -187 callgsubr
            3 -31 -21 -63 hhcurveto
            return
          </CharString>
          <CharString index="489">
            -6 -13 -2 -16 1 -19 rrcurveto
            82 callgsubr
            return
          </CharString>
          <CharString index="490">
            67 -67 89 -69 -21 397 68 -45 73 -20 -20 116 71 hstemhm
            17 463 callgsubr
            return
          </CharString>
          <CharString index="491">
            224 -78 callgsubr
            return
          </CharString>
          <CharString index="492">
            276 callsubr
            -29 -292 callsubr
            15 162 return
          </CharString>
          <CharString index="493" raw="1">
            15ed1dfc e81d0b  
          </CharString>
          <CharString index="494">
            -20 -1 -17 -21 774 callgsubr
            -15 19 21 1 hvcurveto
            1 7 2 5 1 3 rrcurveto
            return
          </CharString>
          <CharString index="495">
            -25 11 31 -40 55 hhcurveto
            63 48 26 51 35 hvcurveto
            1 -1 rlineto
            return
          </CharString>
          <CharString index="496">
            rmoveto
            5 -63 21 129 52 hhcurveto
            57 12 -137 3 -79 hvcurveto
            return
          </CharString>
          <CharString index="497">
            -839 callsubr
            232 -213 -21 return
          </CharString>
          <CharString index="498">
            -20 hstemhm
            16 131 294 205 -61 61 return
          </CharString>
          <CharString index="499">
            15 -811 callgsubr
            return
          </CharString>
          <CharString index="500">
            3 rrcurveto
            -18 -508 callgsubr
            return
          </CharString>
          <CharString index="501">
            rrcurveto
            -141 -11 84 -702 callgsubr
            return
          </CharString>
          <CharString index="502">
            13 1 21 -492 callgsubr
            return
          </CharString>
          <CharString index="503">
            -11 -512 callgsubr
            return
          </CharString>
          <CharString index="504">
            -11 -530 callgsubr
            230 return
          </CharString>
          <CharString index="505">
            -26 -489 callgsubr
            return
          </CharString>
          <CharString index="506">
            hvcurveto
            -1 -10 18 35 -20 hvcurveto
            return
          </CharString>
          <CharString index="507">
            -186 callsubr
            36 hvcurveto
            return
          </CharString>
          <CharString index="508">
            22 -428 callgsubr
            return
          </CharString>
          <CharString index="509">
            -892 callgsubr
            69 return
          </CharString>
          <CharString index="510">
            -14 382 callgsubr
            return
          </CharString>
          <CharString index="511">
            -15 -7 14 29 27 return
          </CharString>
          <CharString index="512">
            rmoveto
            -782 callsubr
            rrcurveto
            160 callgsubr
            -43 208 callsubr
            -61 25 -1 16 1 9 -1 rlinecurve
            15 11 -17 -35 8 hvcurveto
            7 -28 3 -33 -2 -37 -3 -43 -8 -38 -13 766 callgsubr
            -17 -20 -23 -25 hhcurveto
            return
          </CharString>
          <CharString index="513">
            hlineto
            -6 -72 rlineto
            329 hlineto
            32 16 -18 -37 -1 hvcurveto
            -33 -20 -15 -32 -1 vhcurveto
            -19 -1 rlineto
            -8 hlineto
            -73 -57 -39 -73 5 hvcurveto
            82 callgsubr
            return
          </CharString>
          <CharString index="514">
            54 -54 172 return
          </CharString>
          <CharString index="515">
            -48 -15 -24 -24 return
          </CharString>
          <CharString index="516">
            38 3 16 19 30 hhcurveto
            31 15 -19 -38 -3 hvcurveto
            -4 -35 -17 -21 -29 -8 -82 -19 -75 -18 -8 -94 rrcurveto
            -93 -3 49 -64 94 hhcurveto
            59 37 31 33 15 hvcurveto
            -43 16 33 -21 48 hhcurveto
            97 63 66 79 11 hvcurveto
            return
          </CharString>
          <CharString index="517">
            -530 callsubr
            -7 55 -29 37 -52 18 return
          </CharString>
          <CharString index="518">
            -782 callsubr
            rrcurveto
            160 callgsubr
            -44 hhcurveto
            -62 hlineto
            -4 -61 24 -1 14 1 11 -1 rlinecurve
            15 12 -17 -35 8 hvcurveto
            7 -28 2 -33 -1 -37 -4 -43 -8 -38 -12 766 callgsubr
            -18 -21 -23 -24 hhcurveto
            return
          </CharString>
          <CharString index="519">
            -110 callgsubr
            9 12 -1 -3 13 hvcurveto
            13 -3 11 -3 9 -3 -3 3 -7 5 -9 733 callgsubr
            -10 13 -10 17 624 callgsubr
            3 -430 callsubr
            -41 -34 -19 -38 -26 hvcurveto
            return
          </CharString>
          <CharString index="520">
            145 528 rmoveto
            -3 -27 6 -24 15 -20 -97 -35 -54 683 callgsubr
            60 -84 97 hhcurveto
            return
          </CharString>
          <CharString index="521">
            hvcurveto
            -29 -17 -16 -26 return
          </CharString>
          <CharString index="522">
            hhcurveto
            -35 -15 28 55 return
          </CharString>
          <CharString index="523">
            111 3 -31 77 return
          </CharString>
          <CharString index="524">
            -2 -38 rlineto
            109 hlineto
            1 31 rlineto
            40 5 18 52 37 hhcurveto
            43 29 -26 -93 -124 -109 -33 -107 -40 hvcurveto
            -74 -24 -127 -48 -132 vvcurveto
            -105 131 -82 117 166 96 80 56 46 vhcurveto
            return
          </CharString>
          <CharString index="525">
            1 -11 8 -12 15 -12 rrcurveto
            -15 17 23 -7 29 hhcurveto
            53 45 24 49 35 hvcurveto
            37 47 20 57 5 65 rrcurveto
            -107 10 rmoveto
            -5 -63 -12 -46 -19 -31 rrcurveto
            -24 -15 -17 -12 -17 hhcurveto
            -28 -12 24 48 5 hvcurveto
            return
          </CharString>
          <CharString index="526">
            -93 hvcurveto
            -11 -1 -11 -12 vvcurveto
            -667 callsubr
            14 5 30 2 32 rrcurveto
            5 0 4 1 5 vhcurveto
            2 21 -732 callsubr
            rlinecurve
            return
          </CharString>
          <CharString index="527">
            85 -3 42 37 -1 75 rrcurveto
            -136 51 rmoveto
            5 5 -10 13 -7 17 -4 19 rlinecurve
            -3 11 2 30 6 51 rrcurveto
            -97 hlineto
            6 -11 3 -12 -1 -15 rrcurveto
            -20 -3 -13 -20 -23 hhcurveto
            -16 -16 19 759 callsubr
            return
          </CharString>
          <CharString index="528">
            13 0 14 3 12 vhcurveto
            111 5 59 77 77 -148 callsubr
            -13 -56 -22 -50 -8 -20 -9 -17 -13 -15 rrcurveto
            120 hlineto
            41 71 21 63 5 59 rrcurveto
            return
          </CharString>
          <CharString index="529">
            -55 -1 -16 -27 -29 hhcurveto
            -28 -12 -108 callsubr
            18 30 31 hhcurveto
            23 7 -38 -27 hvcurveto
            562 36 rmoveto
            -49 -22 -34 -20 -1 vhcurveto
            -23 -15 16 47 hvcurveto
            -1 100 78 35 3 -114 rrcurveto
            endchar
          </CharString>
          <CharString index="530">
            21 11 -16 -15 -28 -12 -13 -15 hvcurveto
            -508 hlineto
            -9 -66 rlineto
            415 hlineto
            return
          </CharString>
          <CharString index="531">
            -73 210 callgsubr
            201 -709 callsubr
            return
          </CharString>
          <CharString index="532">
            -11 158 callgsubr
            -626 callsubr
            return
          </CharString>
          <CharString index="533">
            -438 callsubr
            18 31 30 hhcurveto
            31 return
          </CharString>
          <CharString index="534">
            19 38 44 hvcurveto
            11 10 11 11 9 12 5 -35 return
          </CharString>
          <CharString index="535">
            29 -45 19 -61 11 -14 16 -7 16 1 15 rrcurveto
            return
          </CharString>
          <CharString index="536">
            -7 15 -3 14 1 15 1 7 return
          </CharString>
          <CharString index="537">
            -590 callgsubr
            rrcurveto
            23 return
          </CharString>
          <CharString index="538">
            rmoveto
            -802 callsubr
            return
          </CharString>
          <CharString index="539">
            4 59 -15 42 -33 24 return
          </CharString>
          <CharString index="540">
            21 -14 19 -22 19 rrcurveto
            return
          </CharString>
          <CharString index="541">
            60 30 -45 -90 return
          </CharString>
          <CharString index="542">
            hlineto
            18 -74 rlineto
            20 hlineto
            8 -1 7 -3 5 -4 rrcurveto
            24 -16 0 -47 -67 vvcurveto
            653 callgsubr
            -26 -31 rrcurveto
            -28 -25 -25 -14 -27 hhcurveto
            -66 -14 59 58 2 hvcurveto
            1 return
          </CharString>
          <CharString index="543">
            21 -11 31 -5 27 1 36 rrcurveto
            33 4 18 29 21 hhcurveto
            23 12 -17 -35 -3 -1 -19 -2 -34 hvcurveto
            -72 -6 43 -36 91 hhcurveto
            59 51 23 47 43 hvcurveto
            42 45 24 63 6 81 rrcurveto
            -105 -269 rmoveto
            return
          </CharString>
          <CharString index="544">
            -743 callgsubr
            4 hvcurveto
            49 4 33 260 callgsubr
            -47 hlineto
            return
          </CharString>
          <CharString index="545">
            73 64 rmoveto
            42 -22 -30 21 -37 hhcurveto
            -9 -11 -2 -1 -15 hvcurveto
            -4 -48 rlineto
            1 11 8 2 1 hhcurveto
            45 -2 23 -41 -80 -11 -1 -10 -15 vvcurveto
            -110 -9 -20 -55 -32 hhcurveto
            -23 -11 11 22 2 hvcurveto
            return
          </CharString>
          <CharString index="546">
            41 3 32 27 36 hhcurveto
            36 28 -40 -48 -5 hvcurveto
            9 -13 -19 5 -26 hhcurveto
            -35 -27 -13 -19 -27 hvcurveto
            -29 -23 -16 -28 -2 -32 rrcurveto
            -89 -7 50 -58 76 -118 callsubr
            9 hvcurveto
            endchar
          </CharString>
          <CharString index="547">
            -813 callgsubr
            -760 callsubr
            return
          </CharString>
          <CharString index="548">
            -12 callgsubr
            -40 -36 28 22 -11 hvcurveto
            return
          </CharString>
          <CharString index="549">
            -531 callgsubr
            -4 hvcurveto
            -1 -20 -10 -1085 callgsubr
            return
          </CharString>
          <CharString index="550">
            619 callgsubr
            392 85 87 72 78 63 253 callgsubr
            237 176 -94 109 return
          </CharString>
          <CharString index="551">
            -90 -359 callgsubr
            -4 -72 rlineto
            -1 10 return
          </CharString>
          <CharString index="552">
            rmoveto
            -33 -2 -10 -17 -19 hhcurveto
            -19 -9 17 34 3 hvcurveto
            30 1 11 15 20 hhcurveto
            13 12 -23 -23 -1 hvcurveto
            return
          </CharString>
          <CharString index="553">
            hhcurveto
            -66 -32 16 31 3 hvcurveto
            -780 callgsubr
            46 return
          </CharString>
          <CharString index="554">
            3 rrcurveto
            502 callsubr
            -502 callgsubr
            return
          </CharString>
          <CharString index="555">
            -812 callgsubr
            11 return
          </CharString>
          <CharString index="556">
            68 -68 175 47 229 -151 60 -60 151 28 return
          </CharString>
          <CharString index="557">
            -2 -7 -4 511 callgsubr
            -387 callsubr
            return
          </CharString>
          <CharString index="558">
            hlineto
            22 -1 19 -5 16 -8 -258 callsubr
            return
          </CharString>
          <CharString index="559">
            67 117 184 -52 52 return
          </CharString>
          <CharString index="560">
            -31 -35 -4 -35 -4 -41 rrcurveto
            return
          </CharString>
          <CharString index="561">
            -37 -50 33 61 hvcurveto
            -93 hlineto
            return
          </CharString>
          <CharString index="562">
            hvcurveto
            17 -35 7 -35 -3 -35 return
          </CharString>
          <CharString index="563">
            29 20 41 53 -3 vhcurveto
            92 return
          </CharString>
          <CharString index="564">
            -2 227 callgsubr
            16 31 return
          </CharString>
          <CharString index="565">
            33 11 22 29 hvcurveto
            return
          </CharString>
          <CharString index="566">
            rmoveto
            hintmask 10111111
            -1082 callgsubr
            hintmask 01111111
            -104 callgsubr
            return
          </CharString>
          <CharString index="567">
            -3 -39 13 -29 30 -20 26 -16 32 -7 37 1 69 4 rcurveline
            1 15 9 1 1 hhcurveto
            69 33 -28 -56 -3 hvcurveto
            -1 -21 -10 -17 -20 -14 rrcurveto
            -18 -23 -28 -9 -33 hhcurveto
            -39 -37 28 21 -10 hvcurveto
            return
          </CharString>
          <CharString index="568">
            rmoveto
            63 -45 29 -55 vhcurveto
            -267 -987 callgsubr
            239 -787 callsubr
            -2 -8 -13 -1 -17 hhcurveto
            -68 hlineto
            -4 -65 74 1 rlineto
            65 75 22 89 hvcurveto
            return
          </CharString>
          <CharString index="569">
            12 25 47 hvcurveto
            return
          </CharString>
          <CharString index="570">
            529 169 rmoveto
            5 -735 callgsubr
            1 31 2 23 -10 20 -21 17 5 4 4 4 3 5 14 17 7 24 -1 29 rrcurveto
            61 -3 -29 31 -57 hhcurveto
            -243 hlineto
            return
          </CharString>
          <CharString index="571">
            20 -13 9 40 27 hhcurveto
            17 11 -16 -21 -3 hvcurveto
            -3 -5 -22 11 vhcurveto
            64 hlineto
            5 3 2 4 16 3 38 25 21 15 -8 -43 -27 -13 -18 -23 -12 hvcurveto
            -62 -39 -108 -3 -22 -94 rrcurveto
            return
          </CharString>
          <CharString index="572">
            -26 -3 -8 -13 -13 hhcurveto
            -15 -6 14 29 3 hvcurveto
            29 1 15 15 28 hhcurveto
            57 30 21 42 3 hvcurveto
            61 5 -32 31 -69 hhcurveto
            -86 -45 -37 -74 -5 hvcurveto
            94 hlineto
            -2 7 0 8 2 9 rrcurveto
            return
          </CharString>
          <CharString index="573">
            -7 -71 rlineto
            212 hlineto
            16 11 -1 -19 -1 hvcurveto
            -16 1 -13 -27 3 vhcurveto
            -3 -3 -10 3 -17 hhcurveto
            -690 callsubr
            return
          </CharString>
          <CharString index="574">
            19 -1041 callgsubr
            return
          </CharString>
          <CharString index="575">
            -337 callsubr
            21 hvcurveto
            17 -29 7 -39 -3 -49 rrcurveto
            endchar
          </CharString>
          <CharString index="576">
            -965 callgsubr
            -92 78 -62 76 57 68 hstemhm
            return
          </CharString>
          <CharString index="577">
            466 callsubr
            145 -31 91 89 rrcurveto
            101 103 -8 244 -184 hhcurveto
            return
          </CharString>
          <CharString index="578">
            69 -69 184 85 68 60 67 -823 callgsubr
            return
          </CharString>
          <CharString index="579">
            -130 -455 callsubr
            return
          </CharString>
          <CharString index="580">
            245 rmoveto
            164 13 -102 159 -171 hhcurveto
            -155 -80 -45 -91 return
          </CharString>
          <CharString index="581">
            -21 228 57 130 54 -54 225 -213 -292 callsubr
            return
          </CharString>
          <CharString index="582">
            -56 763 callgsubr
            -35 vhcurveto
            -16 -16 -9 -23 return
          </CharString>
          <CharString index="583">
            5 -18 4 -13 5 -8 750 callsubr
            hlineto
            return
          </CharString>
          <CharString index="584">
            -823 callgsubr
            105 return
          </CharString>
          <CharString index="585">
            67 -47 287 callsubr
            -52 192 return
          </CharString>
          <CharString index="586">
            167 callgsubr
            15 0 13 return
          </CharString>
          <CharString index="587">
            20 741 callgsubr
            -4 hvcurveto
            return
          </CharString>
          <CharString index="588">
            -426 callgsubr
            78 return
          </CharString>
          <CharString index="589">
            1 -10 774 callsubr
            return
          </CharString>
          <CharString index="590">
            39 11 42 3 45 return
          </CharString>
          <CharString index="591">
            -8 764 callsubr
            -8 return
          </CharString>
          <CharString index="592">
            rrcurveto
            112 hlineto
            return
          </CharString>
          <CharString index="593">
            14 -15 9 -10 5 -3 rrcurveto
            -5 8 14 -3 21 hhcurveto
            30 26 10 19 22 hvcurveto
            25 24 14 32 1 39 rrcurveto
            78 7 -37 39 -83 hhcurveto
            -51 -44 -26 -52 -36 hvcurveto
            -29 -45 -17 -53 -4 -61 return
          </CharString>
          <CharString index="594">
            7 -13 4 -16 -13 vvcurveto
            114 hlineto
            93 7 -76 46 -159 hhcurveto
            -10 hlineto
            -5 -5 0 -1 -5 hvcurveto
            -1 hlineto
            -31 -515 callsubr
            75 117 callsubr
            return
          </CharString>
          <CharString index="595">
            889 397 rmoveto
            4 57 -7 45 -18 33 rrcurveto
            45 -22 -39 23 -55 hhcurveto
            -537 hlineto
            -7 -73 rlineto
            168 hlineto
            21 23 -5 -21 -3 hvcurveto
            -28 -1 -20 -2 -35 hhcurveto
            -36 hlineto
            19 -75 rlineto
            return
          </CharString>
          <CharString index="596">
            901 397 rmoveto
            4 57 -7 45 -18 33 rrcurveto
            45 -23 -39 23 -54 hhcurveto
            -539 hlineto
            -5 -73 rlineto
            168 hlineto
            21 20 -5 -21 -1 hvcurveto
            -28 -1 -22 -2 -32 hhcurveto
            -37 hlineto
            20 -75 rlineto
            return
          </CharString>
          <CharString index="597">
            -107 callsubr
            -353 return
          </CharString>
          <CharString index="598">
            -584 callsubr
            624 80 -1112 callsubr
          </CharString>
          <CharString index="599">
            -27 -36 15 -45 hhcurveto
            -53 return
          </CharString>
          <CharString index="600">
            -13 -26 -1 hvcurveto
            return
          </CharString>
          <CharString index="601">
            23 -21 -28 11 -37 -915 callsubr
            -592 callsubr
            return
          </CharString>
          <CharString index="602">
            -6 21 -14 19 -21 19 rrcurveto
            25 -29 -34 13 -38 hhcurveto
            -67 -62 -11 -51 -25 hvcurveto
            -27 -59 29 -549 callgsubr
            5 -9 5 -11 return
          </CharString>
          <CharString index="603">
            -1088 callsubr
            84 1 -43 46 -73 hhcurveto
            -63 -46 -22 -44 -31 hvcurveto
            -11 745 callsubr
            -23 vvcurveto
            -3 -1 783 callsubr
            vhcurveto
            return
          </CharString>
          <CharString index="604">
            321 511 rmoveto
            62 6 -63 35 -53 hhcurveto
            -207 -987 callgsubr
            176 -866 callsubr
            -47 -3 -90 15 -30 hhcurveto
            -4 -65 81 3 140 -19 3 123 rlinecurve
            return
          </CharString>
          <CharString index="605">
            -36 -4 28 -27 33 hhcurveto
            33 27 26 35 4 hvcurveto
            -509 484 rmoveto
            -37 -4 -512 callsubr
            3 hvcurveto
            41 3 13 21 21 hhcurveto
            23 11 -21 -41 -3 hvcurveto
            endchar
          </CharString>
          <CharString index="606">
            -259 callgsubr
            100 -68 68 99 384 callsubr
            13 119 225 70 44 92 return
          </CharString>
          <CharString index="607">
            -634 callsubr
            241 71 5 -166 callgsubr
            return
          </CharString>
          <CharString index="608">
            517 177 -771 callsubr
            return
          </CharString>
          <CharString index="609">
            45 3 14 23 23 hhcurveto
            23 10 -28 -45 -27 -3 -63 -37 hvcurveto
            endchar
          </CharString>
          <CharString index="610">
            -65 22 -51 47 771 callgsubr
            43 57 -18 69 hhcurveto
            89 return
          </CharString>
          <CharString index="611">
            43 32 -16 -32 21 hvcurveto
            18 -29 7 -39 -4 -49 rrcurveto
            return
          </CharString>
          <CharString index="612">
            -514 callsubr
            -3 hvcurveto
            return
          </CharString>
          <CharString index="613">
            93 127 hstemhm
            17 -866 callgsubr
            return
          </CharString>
          <CharString index="614">
            789 callsubr
            15 41 36 hvcurveto
            39 43 23 57 5 71 return
          </CharString>
          <CharString index="615">
            30 -18 48 hhcurveto
            109 72 64 100 7 hvcurveto
            return
          </CharString>
          <CharString index="616">
            -311 callgsubr
            57 hhcurveto
            return
          </CharString>
          <CharString index="617">
            hlineto
            -5 562 callgsubr
            return
          </CharString>
          <CharString index="618">
            557 243 rmoveto
            4 60 -13 52 -29 44 return
          </CharString>
          <CharString index="619">
            -13 -19 -21 hhcurveto
            -23 -10 19 37 return
          </CharString>
          <CharString index="620">
            -591 callgsubr
            42 -27 return
          </CharString>
          <CharString index="621">
            -31 -37 -1 hvcurveto
            -40 -4 25 -31 return
          </CharString>
          <CharString index="622">
            rmoveto
            -43 -4 248 callgsubr
            return
          </CharString>
          <CharString index="623">
            -37 -12 48 32 hvcurveto
            -113 hlineto
            return
          </CharString>
          <CharString index="624">
            -3 -437 callsubr
            return
          </CharString>
          <CharString index="625">
            37 140 hstem
            17 120 return
          </CharString>
          <CharString index="626">
            2 15 14 24 25 27 31 return
          </CharString>
          <CharString index="627">
            hhcurveto
            -297 callgsubr
            return
          </CharString>
          <CharString index="628">
            hhcurveto
            76 117 callsubr
            return
          </CharString>
          <CharString index="629">
            6 6 vvcurveto
            17 vlineto
            return
          </CharString>
          <CharString index="630">
            5 76 -16 62 return
          </CharString>
          <CharString index="631">
            -26 -21 -14 -30 return
          </CharString>
          <CharString index="632">
            -324 callsubr
            23 -9 20 -21 17 12 13 rcurveline
            14 17 6 24 -1 29 rrcurveto
            61 -3 -29 31 -57 hhcurveto
            -243 hlineto
            return
          </CharString>
          <CharString index="633">
            -9 34 hhcurveto
            124 77 98 115 11 hvcurveto
            128 8 -35 128 -149 479 callsubr
            -73 -823 callsubr
            87 9 -109 -64 -8 hvcurveto
            return
          </CharString>
          <CharString index="634">
            -29 13 50 -19 36 hhcurveto
            123 26 107 85 hvcurveto
            -108 52 rmoveto
            -23 -2 -9 -12 -16 hhcurveto
            -14 -6 13 26 3 hvcurveto
            23 1 7 11 15 hhcurveto
            16 7 -13 -25 -2 hvcurveto
            endchar
          </CharString>
          <CharString index="635">
            166 callgsubr
            -5 21 -6 15 -9 11 return
          </CharString>
          <CharString index="636">
            17 57 hhcurveto
            75 117 callsubr
            59 -21 27 -42 -5 -61 rrcurveto
            return
          </CharString>
          <CharString index="637">
            -131 callsubr
            154 -57 57 hstemhm
            return
          </CharString>
          <CharString index="638">
            69 -49 169 callsubr
            169 140 hstemhm
            13 119 return
          </CharString>
          <CharString index="639">
            35 -31 123 callsubr
            return
          </CharString>
          <CharString index="640">
            46 65 748 callgsubr
            30 return
          </CharString>
          <CharString index="641">
            0 6 6 vvcurveto
            19 vlineto
            return
          </CharString>
          <CharString index="642">
            -14 -7 -10 -14 -5 vhcurveto
            return
          </CharString>
          <CharString index="643">
            11 -8 -11 6 -13 hhcurveto
            return
          </CharString>
          <CharString index="644">
            1 -5 -4 0 -5 hhcurveto
            return
          </CharString>
          <CharString index="645">
            -43 -3 hvcurveto
            endchar
          </CharString>
          <CharString index="646">
            8 -14 -28 -1 hvcurveto
            312 -246 -314 callsubr
            rrcurveto
            29 -36 -54 23 -67 hhcurveto
            -77 -83 -19 -77 -3 hvcurveto
            -42 27 -28 30 -14 vhcurveto
            return
          </CharString>
          <CharString index="647">
            rmoveto
            -836 callgsubr
            return
          </CharString>
          <CharString index="648">
            -36 -1 25 -27 35 hhcurveto
            32 28 26 36 4 hvcurveto
            -110 -640 callsubr
            return
          </CharString>
          <CharString index="649">
            -93 callsubr
            endchar
          </CharString>
          <CharString index="650">
            3 rlinecurve
            -27 5 -13 22 40 vvcurveto
            11 1 10 2 10 vhcurveto
            7 35 rlineto
            161 -374 rmoveto
            return
          </CharString>
          <CharString index="651">
            3 -13 5 -7 5 -1 rrcurveto
            -227 hlineto
            -5 -67 rlineto
            318 hlineto
            83 43 31 61 5 hvcurveto
            return
          </CharString>
          <CharString index="652">
            328 callsubr
            4 18 226 callsubr
            5 -31 -61 hvcurveto
            return
          </CharString>
          <CharString index="653">
            rmoveto
            217 -182 53 64 -158 136 189 127 -53 64 -243 -174 rlineto
            return
          </CharString>
          <CharString index="654">
            21 136 callsubr
            return
          </CharString>
          <CharString index="655">
            209 callsubr
            32 return
          </CharString>
          <CharString index="656">
            559 callsubr
            35 4 hvcurveto
            -107 226 -78 callgsubr
            return
          </CharString>
          <CharString index="657">
            492 537 rmoveto
            5 64 -37 42 -43 4 rrcurveto
            1 -6 -10 0 -13 hhcurveto
            -328 hlineto
            -5 -71 rlineto
            273 hlineto
            36 15 -24 -36 -24 -20 -29 -32 hvcurveto
            -33 hlineto
            -11 hlineto
            return
          </CharString>
          <CharString index="658">
            31 29 -36 -41 -1 hvcurveto
            -3 347 callsubr
            6 88 140 29 2 -101 rrcurveto
            -8 -1 -5 -1 -3 vhcurveto
            -57 33 -110 -53 -10 -98 -13 -150 150 -20 94 94 return
          </CharString>
          <CharString index="659">
            -38 -27 hvcurveto
            619 59 -1112 callsubr
          </CharString>
          <CharString index="660">
            rmoveto
            -1 -44 -20 -17 -16 -3 531 callsubr
          </CharString>
          <CharString index="661">
            rmoveto
            3 97 74 5 -11 -104 -5 -100 -66 11 5 91 rrcurveto
            endchar
          </CharString>
          <CharString index="662">
            -765 callgsubr
            -41 return
          </CharString>
          <CharString index="663">
            rrcurveto
            115 hlineto
            return
          </CharString>
          <CharString index="664">
            -579 -102 callsubr
            return
          </CharString>
          <CharString index="665">
            231 0 69 312 239 -224 68 89 67 -402 callsubr
            44 86 66 127 hintmask 10111111
            840 345 515 callgsubr
            35 return
          </CharString>
          <CharString index="666">
            567 520 rmoveto
            112 -111 3 -79 vhcurveto
            -278 -341 callsubr
            326 hlineto
            36 16 -18 -36 -4 hvcurveto
            -29 -1 -4 -13 -29 hhcurveto
            -179 -4 12 -67 rlineto
            return
          </CharString>
          <CharString index="667">
            -7 -3 vlineto
            -84 -33 -74 -52 hvcurveto
            3 -90 74 -34 41 20 rrcurveto
            -45 -16 -57 -33 -75 hhcurveto
            -80 -58 29 51 -8 hvcurveto
            -3 14 11 -2 8 hhcurveto
            53 47 33 60 4 hvcurveto
            return
          </CharString>
          <CharString index="668">
            -514 callgsubr
            -11 17 -12 14 -14 9 -14 9 rcurveline
            -3 3 -3 2 -5 2 -52 18 1 69 71 -1 rrcurveto
            30 30 -34 -43 -3 hvcurveto
            return
          </CharString>
          <CharString index="669">
            184 265 rmoveto
            -51 -3 -11 -26 -18 hhcurveto
            -24 -12 24 47 1 hvcurveto
            19 6 16 5 13 vhcurveto
            -451 callgsubr
            125 80 rmoveto
            return
          </CharString>
          <CharString index="670">
            -55 -21 -29 -33 -1 -43 -11 -124 156 -40 115 81 29 19 16 27 3 35 return
          </CharString>
          <CharString index="671">
            -667 callgsubr
            -48 return
          </CharString>
          <CharString index="672">
            -294 callsubr
            -2 hvcurveto
            -489 callsubr
            -2 -8 return
          </CharString>
          <CharString index="673">
            -1 -35 -8 -29 -15 -35 -17 -19 -26 695 callgsubr
            return
          </CharString>
          <CharString index="674">
            486 callgsubr
            84 122 115 5 hvcurveto
            return
          </CharString>
          <CharString index="675">
            rmoveto
            -5 -119 -81 8 8 103 3 104 83 6 -8 -102 rrcurveto
            return
          </CharString>
          <CharString index="676">
            -654 callgsubr
            43 62 return
          </CharString>
          <CharString index="677">
            -36 -30 -61 -3 hvcurveto
            -1 -23 3 -18 7 -11 rrcurveto
            return
          </CharString>
          <CharString index="678">
            742 callsubr
            -11 -17 vhcurveto
            -21 -14 -17 -11 -20 hhcurveto
            return
          </CharString>
          <CharString index="679">
            57 4 -36 43 -64 hhcurveto
            -79 -41 -32 -65 -5 hvcurveto
            return
          </CharString>
          <CharString index="680">
            hstemhm
            9 104 134 92 152 104 178 95 return
          </CharString>
          <CharString index="681">
            -770 callgsubr
            -15 return
          </CharString>
          <CharString index="682">
            -254 callsubr
            184 return
          </CharString>
          <CharString index="683">
            -205 -12 105 -72 -21 385 95 return
          </CharString>
          <CharString index="684">
            -301 -341 callsubr
            308 hlineto
            return
          </CharString>
          <CharString index="685">
            -64 33 -59 232 callgsubr
            -27 41 return
          </CharString>
          <CharString index="686">
            -56 -839 callgsubr
            return
          </CharString>
          <CharString index="687">
            rmoveto
            -58 -4 -15 -29 -25 hhcurveto
            return
          </CharString>
          <CharString index="688">
            109 callsubr
            -2 return
          </CharString>
          <CharString index="689">
            -566 callsubr
            55 40 return
          </CharString>
          <CharString index="690">
            525 rmoveto
            -4 -34 10 -29 return
          </CharString>
          <CharString index="691">
            69 116 736 callsubr
            63 return
          </CharString>
          <CharString index="692">
            -183 callsubr
            23 hhcurveto
            return
          </CharString>
          <CharString index="693">
            -369 callsubr
            5 return
          </CharString>
          <CharString index="694">
            -10 -368 callgsubr
            return
          </CharString>
          <CharString index="695">
            -299 callgsubr
            10 return
          </CharString>
          <CharString index="696">
            -173 -182 callsubr
            return
          </CharString>
          <CharString index="697">
            30 -7 24 -17 19 rrcurveto
            return
          </CharString>
          <CharString index="698">
            16 0 13 4 8 rrcurveto
            return
          </CharString>
          <CharString index="699">
            723 callgsubr
            -46 -89 hhcurveto
            return
          </CharString>
          <CharString index="700">
            27 -21 -30 14 -41 hhcurveto
            return
          </CharString>
          <CharString index="701">
            -10 -9 1 -8 hhcurveto
            return
          </CharString>
          <CharString index="702">
            159 callgsubr
            40 return
          </CharString>
          <CharString index="703">
            16 -37 -74 -5 hvcurveto
            return
          </CharString>
          <CharString index="704">
            206 callsubr
            -3 return
          </CharString>
          <CharString index="705">
            -7 37 2 rrcurveto
            return
          </CharString>
          <CharString index="706">
            -400 callsubr
            4 return
          </CharString>
          <CharString index="707">
            -320 callsubr
            -32 -27 -9 -17 -23 hvcurveto
            -27 -21 -15 -32 -2 -41 rrcurveto
            -88 -7 39 -44 83 hhcurveto
            45 39 18 37 31 hvcurveto
            return
          </CharString>
          <CharString index="708">
            75 -57 -21 406 61 -61 74 56 75 -51 127 hstemhm
            -5 121 212 124 227 111 201 93 -93 245 79 120 -108 108 return
          </CharString>
          <CharString index="709">
            -867 callgsubr
            -78 196 -181 163 -68 68 -2 -20 76 55 93 52 hstemhm
            16 129 302 125 -36 100 -27 60 38 128 return
          </CharString>
          <CharString index="710">
            683 251 callsubr
            -36 -39 -52 -17 5 -14 338 callgsubr
            -2 -11 -3 -10 -6 -10 -407 callgsubr
            -42 45 -31 return
          </CharString>
          <CharString index="711">
            -987 callgsubr
            182 hlineto
            33 -345 callgsubr
            -8 -9 -14 -5 rrcurveto
            -2 -7 421 callsubr
            -45 hlineto
            -4 -65 73 1 rlineto
            68 83 33 78 hvcurveto
            return
          </CharString>
          <CharString index="712">
            29 21 41 53 -3 vhcurveto
            89 -8 7 -90 -76 -22 rrcurveto
            -84 275 rmoveto
            -5 -40 -52 -34 -11 50 rrcurveto
            26 -9 11 36 32 hhcurveto
            20 15 -17 -21 -1 hvcurveto
            endchar
          </CharString>
          <CharString index="713">
            387 callgsubr
            156 302 callsubr
            return
          </CharString>
          <CharString index="714">
            34 -33 43 -37 -39 -20 -35 -3 -30 rrcurveto
            return
          </CharString>
          <CharString index="715">
            35 33 -995 callsubr
            return
          </CharString>
          <CharString index="716">
            16 2 -165 callgsubr
            return
          </CharString>
          <CharString index="717">
            110 callsubr
            103 59 77 68 return
          </CharString>
          <CharString index="718">
            -202 -21 51 63 -63 127 44 68 return
          </CharString>
          <CharString index="719">
            rlineto
            1 2 116 callgsubr
            3 rlineto
            return
          </CharString>
          <CharString index="720">
            209 callsubr
            33 32 11 32 hhcurveto
            17 return
          </CharString>
          <CharString index="721">
            rmoveto
            -11 -119 -74 8 5 103 return
          </CharString>
          <CharString index="722">
            hstemhm
            11 113 92 115 -86 return
          </CharString>
          <CharString index="723">
            -671 callgsubr
            3 return
          </CharString>
          <CharString index="724">
            575 callsubr
            -6 -71 return
          </CharString>
          <CharString index="725">
            -111 170 callsubr
            return
          </CharString>
          <CharString index="726">
            -74 -823 callsubr
            return
          </CharString>
          <CharString index="727">
            85 hhcurveto
            47 -847 callsubr
            return
          </CharString>
          <CharString index="728">
            -118 callgsubr
            -29 return
          </CharString>
          <CharString index="729">
            hstemhm
            197 callgsubr
            return
          </CharString>
          <CharString index="730">
            -50 -468 callgsubr
            -22 -35 rrcurveto
            return
          </CharString>
          <CharString index="731">
            -985 callsubr
            -35 rmoveto
            return
          </CharString>
          <CharString index="732">
            -621 callgsubr
            -5 730 callgsubr
            -9 15 741 callsubr
            -39 746 callgsubr
            -86 -36 -22 -56 -33 756 callgsubr
            -8 -28 -2 -29 108 callgsubr
            return
          </CharString>
          <CharString index="733">
            75 5 -44 516 callsubr
            -5 -67 15 -55 35 -43 rrcurveto
            -39 33 42 -20 51 hhcurveto
            49 55 25 32 17 hvcurveto
            return
          </CharString>
          <CharString index="734">
            31 74 202 -33 154 vvcurveto
            53 -35 50 -77 -31 -22 -8 -16 -15 vhcurveto
            16 -12 -25 8 -31 -101 -19 -120 26 hhcurveto
            69 hlineto
            7 2 3 7 -4 hvcurveto
            return
          </CharString>
          <CharString index="735">
            168 callgsubr
            30 callsubr
            return
          </CharString>
          <CharString index="736">
            hlineto
            -13 hlineto
            -32 hlineto
            -17 -8 8 15 17 5 8 11 hvcurveto
            217 hlineto
            9 63 rlineto
            -220 hlineto
            -15 -7 6 12 hvcurveto
            13 1 8 7 16 hhcurveto
            296 hlineto
            return
          </CharString>
          <CharString index="737">
            -74 rlineto
            -1 2 0 1 4 hvcurveto
            24 4 rlineto
            61 30 -46 -93 hvcurveto
            -17 vlineto
            -5 389 callgsubr
            return
          </CharString>
          <CharString index="738">
            49 20 39 45 hvcurveto
            46 43 25 55 5 66 rrcurveto
            1 6 -490 callsubr
            return
          </CharString>
          <CharString index="739" raw="1">
            9d0add75 c65eae1f f8721d0b 
          </CharString>
          <CharString index="740">
            -572 callsubr
            27 69 91 501 callgsubr
            447 95 return
          </CharString>
          <CharString index="741">
            -325 callsubr
            119 return
          </CharString>
          <CharString index="742">
            -801 callsubr
            -25 -3 -18 27 1 668 callgsubr
            return
          </CharString>
          <CharString index="743">
            -160 callsubr
            68 return
          </CharString>
          <CharString index="744">
            -47 8 -59 hhcurveto
            -91 return
          </CharString>
          <CharString index="745">
            93 -24 67 -54 40 return
          </CharString>
          <CharString index="746">
            0 -696 callsubr
            return
          </CharString>
          <CharString index="747">
            253 callsubr
            -17 return
          </CharString>
          <CharString index="748">
            -45 -24 -25 -33 return
          </CharString>
          <CharString index="749">
            4 4 -1 -1 4 hvcurveto
            20 hlineto
            41 32 12 23 23 hvcurveto
            20 21 10 21 4 27 1 29 -6 24 -15 21 113 -11 15 -147 -3 -90 rrcurveto
            -16 return
          </CharString>
          <CharString index="750">
            254 -221 callgsubr
            227 69 32 139 -83 -652 callgsubr
            87 113 204 119 return
          </CharString>
          <CharString index="751">
            -871 callgsubr
            -23 -21 -10 -39 4 -1026 callsubr
            return
          </CharString>
          <CharString index="752">
            -239 callgsubr
            33 hhcurveto
            32 30 8 17 return
          </CharString>
          <CharString index="753">
            23 27 -9 33 hhcurveto
            128 77 122 115 10 hvcurveto
            return
          </CharString>
          <CharString index="754">
            64 -211 callgsubr
            38 60 -44 76 1 -20 23 54 94 return
          </CharString>
          <CharString index="755">
            -317 callsubr
            -3 return
          </CharString>
          <CharString index="756">
            679 callsubr
            103 243 callsubr
            return
          </CharString>
          <CharString index="757">
            vhcurveto
            -6 -165 callsubr
            45 22 -41 -82 return
          </CharString>
          <CharString index="758">
            384 callgsubr
            16 9 -23 -23 -1 hvcurveto
            endchar
          </CharString>
          <CharString index="759">
            116 116 112 return
          </CharString>
          <CharString index="760">
            -196 55 -55 171 return
          </CharString>
          <CharString index="761">
            -20 88 68 77 66 hstemhm
            return
          </CharString>
          <CharString index="762">
            -13 28 56 5 vhcurveto
            61 return
          </CharString>
          <CharString index="763">
            33 -8 26 -16 19 vhcurveto
            return
          </CharString>
          <CharString index="764">
            32 hhcurveto
            32 28 return
          </CharString>
          <CharString index="765">
            55 -55 172 return
          </CharString>
          <CharString index="766">
            -7 21 -2 223 callsubr
            46 hvcurveto
            58 30 -212 callsubr
            return
          </CharString>
          <CharString index="767">
            604 callsubr
            -41 27 -29 rrcurveto
            -43 43 65 -21 85 hhcurveto
            47 48 -562 callsubr
            57 31 31 42 4 53 return
          </CharString>
          <CharString index="768">
            hlineto
            -18 57 -30 42 -43 25 -777 callsubr
            -24 -21 -4 -4 hhcurveto
            -5 -60 rlineto
            7 19 20 4 19 hhcurveto
            53 36 -32 -64 18 hvcurveto
            return
          </CharString>
          <CharString index="769">
            179 301 rmoveto
            144 17 41 70 107 hhcurveto
            41 37 -18 -5 19 hvcurveto
            31 96 rlineto
            3 -16 -42 25 -78 hhcurveto
            -165 -95 -98 -217 -31 hvcurveto
            return
          </CharString>
          <CharString index="770">
            11 -7 5 rrcurveto
            13 -23 -30 7 -38 202 callsubr
            -28 hvcurveto
            -43 -32 -23 -41 -3 -51 rrcurveto
            -92 -5 61 -56 92 hhcurveto
            56 42 16 33 29 hvcurveto
            return
          </CharString>
          <CharString index="771">
            -416 callgsubr
            -10 hvcurveto
            -7 15 -2 17 3 18 rrcurveto
            return
          </CharString>
          <CharString index="772">
            254 callgsubr
            49 783 callgsubr
            42 -1117 callgsubr
            return
          </CharString>
          <CharString index="773">
            hlineto
            -28 -74 -9 48 5 hvcurveto
            33 3 478 callsubr
            35 hvcurveto
            return
          </CharString>
          <CharString index="774">
            -756 callgsubr
            246 628 callgsubr
            -542 callgsubr
            return
          </CharString>
          <CharString index="775">
            492 callsubr
            -27 -12 22 43 return
          </CharString>
          <CharString index="776">
            -73 -412 callsubr
            return
          </CharString>
          <CharString index="777">
            hvcurveto
            9 -17 -18 4 -19 244 callgsubr
            return
          </CharString>
          <CharString index="778">
            911 359 576 callsubr
            34 return
          </CharString>
          <CharString index="779">
            887 345 rmoveto
            1 61 -9 46 -24 35 return
          </CharString>
          <CharString index="780">
            -449 callsubr
            85 68 return
          </CharString>
          <CharString index="781">
            185 -163 -21 299 return
          </CharString>
          <CharString index="782">
            43 167 callsubr
            return
          </CharString>
          <CharString index="783">
            -6 21 -14 19 -23 19 rrcurveto
            return
          </CharString>
          <CharString index="784">
            hhcurveto
            19 16 -10 -20 14 hvcurveto
            return
          </CharString>
          <CharString index="785">
            8 -370 callsubr
            return
          </CharString>
          <CharString index="786">
            -342 callsubr
            111 return
          </CharString>
          <CharString index="787">
            517 rmoveto
            2 -55 20 -36 return
          </CharString>
          <CharString index="788">
            786 callsubr
            2 13 return
          </CharString>
          <CharString index="789">
            81 5 114 rrcurveto
            return
          </CharString>
          <CharString index="790">
            hlineto
            -4 -72 rlineto
            return
          </CharString>
          <CharString index="791">
            -83 -64 -31 -61 -47 hvcurveto
            -844 callsubr
            return
          </CharString>
          <CharString index="792">
            69 -49 -309 callgsubr
            57 75 -75 143 606 callsubr
            92 232 96 106 return
          </CharString>
          <CharString index="793">
            rmoveto
            -11 12 -7 -5 -5 21 -4 9 2 30 9 51 rrcurveto
            -107 hlineto
            7 -11 3 -12 -15 vvcurveto
            -20 -3 -15 -20 -24 hhcurveto
            -17 -16 19 19 1 hvcurveto
            return
          </CharString>
          <CharString index="794">
            13 18 8 26 1 35 rrcurveto
            -93 -293 rmoveto
            -108 -9 -46 -54 -84 hhcurveto
            -1121 callgsubr
            99 8 428 callgsubr
            45 32 -16 -32 return
          </CharString>
          <CharString index="795">
            316 callgsubr
            120 7 61 73 104 hhcurveto
            124 29 -81 -107 -5 hvcurveto
            return
          </CharString>
          <CharString index="796">
            hvcurveto
            -1 -20 18 -13 13 1 rrcurveto
            1 3 6 0 8 hhcurveto
            77 callsubr
            -4 -51 -11 -41 -17 -32 rrcurveto
            return
          </CharString>
          <CharString index="797">
            30 2 10 -55 callsubr
            endchar
          </CharString>
          <CharString index="798">
            -767 callgsubr
            -86 return
          </CharString>
          <CharString index="799">
            25 21 hhcurveto
            27 return
          </CharString>
          <CharString index="800">
            -21 241 71 5 167 -76 76 -48 150 -32 68 hstemhm
            12 105 0 112 0 107 0 113 0 100 0 67 0 91 0 82 return
          </CharString>
          <CharString index="801">
            435 363 rmoveto
            39 -21 27 -41 15 vhcurveto
            -17 7 -20 4 -17 4 -4 2 rcurveline
            -55 19 13 53 55 8 74 11 21 -83 -3 -34 rrcurveto
            return
          </CharString>
          <CharString index="802">
            -23 -70 rcurveline
            24 hlineto
            22 16 -7 -22 -25 -22 -10 -28 -13 -13 2 4 -11 hvcurveto
            -18 -52 rlineto
            -4 18 19 -3 19 hhcurveto
            66 70 28 75 hvcurveto
            return
          </CharString>
          <CharString index="803">
            -17 15 21 -8 26 hhcurveto
            35 30 12 23 24 hvcurveto
            -23 13 23 -12 31 hhcurveto
            81 44 50 99 9 hvcurveto
            -328 -193 rmoveto
            3 16 -12 18 return
          </CharString>
          <CharString index="804">
            884 269 rmoveto
            5 57 -7 47 -18 36 rrcurveto
            45 -23 -33 22 -41 hhcurveto
            return
          </CharString>
          <CharString index="805">
            -31 -69 -9 48 3 268 callsubr
            return
          </CharString>
          <CharString index="806">
            433 callsubr
            13 return
          </CharString>
          <CharString index="807">
            507 169 rmoveto
            -738 callsubr
            return
          </CharString>
          <CharString index="808">
            110 11 -60 71 -75 hhcurveto
            -309 hlineto
            -6 -76 rlineto
            return
          </CharString>
          <CharString index="809">
            365 callgsubr
            -8 5 -12 19 return
          </CharString>
          <CharString index="810">
            hvcurveto
            37 3 12 19 21 hhcurveto
            23 11 713 callsubr
            return
          </CharString>
          <CharString index="811">
            hlineto
            40 20 -27 -55 334 callgsubr
            return
          </CharString>
          <CharString index="812">
            -15 -13 -5 -17 3 rlinecurve
            -19 -926 callsubr
            return
          </CharString>
          <CharString index="813">
            54 131 69 -69 184 -176 -21 282 68 return
          </CharString>
          <CharString index="814">
            -341 callsubr
            308 -849 callsubr
            return
          </CharString>
          <CharString index="815" raw="1">
            d7055b06 8fc0938c 938e948f 190b
          </CharString>
          <CharString index="816">
            rmoveto
            2 26 -15 35 -32 43 -39 -39 -20 -35 -1 -30 return
          </CharString>
          <CharString index="817">
            rmoveto
            4 63 -17 42 -39 21 1 68 -25 53 -47 37 return
          </CharString>
          <CharString index="818">
            rmoveto
            28 -16 34 -33 41 vhcurveto
            -47 -37 -25 -33 -32 vvcurveto
            return
          </CharString>
          <CharString index="819">
            -72 -114 callsubr
            -36 return
          </CharString>
          <CharString index="820">
            119 callgsubr
            34 hvcurveto
            -42 17 return
          </CharString>
          <CharString index="821">
            -17 rrcurveto
            -15 24 28 -8 32 hhcurveto
            33 return
          </CharString>
          <CharString index="822">
            -955 callsubr
            20 67 return
          </CharString>
          <CharString index="823">
            3 68 -345 callsubr
            return
          </CharString>
          <CharString index="824">
            63 -848 callgsubr
            return
          </CharString>
          <CharString index="825">
            -38 -443 callsubr
            return
          </CharString>
          <CharString index="826">
            -36 15 -45 hhcurveto
            -53 -37 -16 -32 return
          </CharString>
          <CharString index="827">
            -21 23 -384 callgsubr
            68 return
          </CharString>
          <CharString index="828">
            -112 callsubr
            12 hvcurveto
            return
          </CharString>
          <CharString index="829">
            hhcurveto
            146 -892 callsubr
            return
          </CharString>
          <CharString index="830">
            -208 -366 callsubr
            return
          </CharString>
          <CharString index="831">
            35 -30 123 callsubr
            return
          </CharString>
          <CharString index="832">
            -185 -617 callsubr
            return
          </CharString>
          <CharString index="833">
            1 154 callgsubr
            return
          </CharString>
          <CharString index="834">
            245 callsubr
            -23 return
          </CharString>
          <CharString index="835">
            43 20 59 5 76 return
          </CharString>
          <CharString index="836">
            3 227 callsubr
            return
          </CharString>
          <CharString index="837">
            hlineto
            35 16 -13 -26 return
          </CharString>
          <CharString index="838">
            -39 29 -28 rrcurveto
            -25 return
          </CharString>
          <CharString index="839">
            255 callgsubr
            hstemhm
            return
          </CharString>
          <CharString index="840">
            -211 callgsubr
            54 return
          </CharString>
          <CharString index="841">
            rrcurveto
            -101 -7 55 return
          </CharString>
          <CharString index="842">
            12 788 callsubr
            return
          </CharString>
          <CharString index="843">
            530 callsubr
            174 callsubr
            112 101 -101 231 80 118 -106 106 return
          </CharString>
          <CharString index="844">
            -668 callgsubr
            -780 callgsubr
            48 205 callsubr
            return
          </CharString>
          <CharString index="845">
            -1 16 -1 12 -3 7 -1 185 callsubr
            return
          </CharString>
          <CharString index="846">
            rmoveto
            -4 -45 -11 -22 -19 -1 -12 -1 -9 9 -5 17 -4 10 -1 14 2 561 callsubr
            9 -24 -3 -46 rrcurveto
            return
          </CharString>
          <CharString index="847">
            hlineto
            39 33 -11 -21 27 hvcurveto
            357 callsubr
            -111 callgsubr
            return
          </CharString>
          <CharString index="848">
            -1 -3 -15 vhcurveto
            return
          </CharString>
          <CharString index="849">
            -25 -13 -29 -3 -35 -4 -48 12 -36 29 -24 rrcurveto
            -21 25 30 -10 36 571 callsubr
            22 49 6 66 rrcurveto
            return
          </CharString>
          <CharString index="850">
            699 callsubr
            -21 28 -27 17 -32 7 -9 5 -6 6 -5 7 rrcurveto
            29 -18 12 45 52 hhcurveto
            32 29 -34 -43 -3 hvcurveto
            return
          </CharString>
          <CharString index="851">
            rmoveto
            -848 callsubr
            -17 -14 9 17 -9 hvcurveto
            -7 15 -2 14 1 15 rrcurveto
            7 1 5 3 4 vhcurveto
            100 hlineto
            5 69 return
          </CharString>
          <CharString index="852">
            3 31 rlineto
            -820 callsubr
            -5 -14 -25 -28 -747 callsubr
            return
          </CharString>
          <CharString index="853">
            -28 -8 -17 -21 hvcurveto
            -26 -21 -14 -28 -3 -35 -1 -15 1 -14 3 -13 -27 -3 753 callgsubr
            -18 -25 -21 -15 -28 -3 -34 rrcurveto
            -69 return
          </CharString>
          <CharString index="854">
            rrcurveto
            91 -38 -703 callsubr
            -150 -78 -35 -69 -5 hvcurveto
            -4 -45 12 -31 29 -17 4 -3 rcurveline
            -32 -23 -18 -29 -3 -35 -8 return
          </CharString>
          <CharString index="855">
            242 0 69 87 139 86 -652 callgsubr
            17 120 -60 112 207 121 55 88 67 125 return
          </CharString>
          <CharString index="856">
            715 callsubr
            30 27 8 16 23 hvcurveto
            15 9 13 11 11 13 9 -17 12 -13 17 -9 rrcurveto
            -12 23 25 -6 28 hhcurveto
            145 62 return
          </CharString>
          <CharString index="857">
            256 143 rmoveto
            -100 hlineto
            -384 -616 rlineto
            103 hlineto
            394 144 rmoveto
            107 16 -33 47 -83 hhcurveto
            -79 -46 -51 -103 -15 hvcurveto
            return
          </CharString>
          <CharString index="858">
            rmoveto
            -3 -43 -11 -23 -19 -2 rrcurveto
            -20 -2 -11 26 23 vvcurveto
            20 vlineto
            4 49 8 24 27 -1 21 -2 9 -24 -5 -45 rrcurveto
            endchar
          </CharString>
          <CharString index="859">
            -190 callgsubr
            rrcurveto
            return
          </CharString>
          <CharString index="860">
            -505 callgsubr
            -116 hlineto
            8 -15 4 -19 -1 -23 rrcurveto
            return
          </CharString>
          <CharString index="861">
            rrcurveto
            -957 callsubr
            2 hvcurveto
            3 16 2 return
          </CharString>
          <CharString index="862">
            -929 callgsubr
            18 hvcurveto
            193 hlineto
            return
          </CharString>
          <CharString index="863">
            hhcurveto
            -96 -66 -60 -92 -5 419 callgsubr
            -3 -343 callsubr
            rrcurveto
            return
          </CharString>
          <CharString index="864">
            -401 callgsubr
            37 hvcurveto
            41 26 22 36 5 46 rrcurveto
            return
          </CharString>
          <CharString index="865">
            -221 -12 109 -76 418 callgsubr
            return
          </CharString>
          <CharString index="866">
            rlineto
            -1 2 123 callgsubr
            24 3 rlineto
            return
          </CharString>
          <CharString index="867">
            -387 callsubr
            -79 -25 -48 -43 hvcurveto
            return
          </CharString>
          <CharString index="868">
            -253 -12 95 116 77 119 88 return
          </CharString>
          <CharString index="869">
            63 rlineto
            -137 hlineto
            -15 -8 6 12 13 return
          </CharString>
          <CharString index="870">
            -231 0 104 160 97 140 104 return
          </CharString>
          <CharString index="871">
            -299 callsubr
            13 return
          </CharString>
          <CharString index="872">
            hhcurveto
            -33 155 callgsubr
            return
          </CharString>
          <CharString index="873">
            58 -27 20 -66 -8 -80 rrcurveto
            return
          </CharString>
          <CharString index="874">
            rlineto
            -1 3 123 callgsubr
            return
          </CharString>
          <CharString index="875">
            17 34 callgsubr
            return
          </CharString>
          <CharString index="876">
            hvcurveto
            24 3 15 24 21 hhcurveto
            return
          </CharString>
          <CharString index="877">
            576 callgsubr
            -69 return
          </CharString>
          <CharString index="878">
            rlineto
            -1 11 3 1 21 hvcurveto
            return
          </CharString>
          <CharString index="879">
            rmoveto
            -592 callgsubr
            return
          </CharString>
          <CharString index="880">
            rrcurveto
            794 callgsubr
            -18 -21 hhcurveto
            return
          </CharString>
          <CharString index="881">
            19 -17 753 callsubr
            return
          </CharString>
          <CharString index="882">
            -289 callgsubr
            -37 return
          </CharString>
          <CharString index="883">
            58 383 callsubr
            return
          </CharString>
          <CharString index="884">
            11 -115 rrcurveto
            return
          </CharString>
          <CharString index="885">
            -30 21 31 -15 return
          </CharString>
          <CharString index="886">
            37 3 31 19 return
          </CharString>
          <CharString index="887">
            rmoveto
            -1057 callgsubr
            return
          </CharString>
          <CharString index="888">
            -18 -303 callsubr
            127 hlineto
            5 63 rlineto
            -136 hlineto
            -19 -5 6 12 488 callgsubr
            return
          </CharString>
          <CharString index="889">
            -25 -1 -8 -12 -13 hhcurveto
            -15 -7 14 28 2 hvcurveto
            29 3 14 14 27 hhcurveto
            57 30 779 callgsubr
            hvcurveto
            61 5 -32 31 -67 hhcurveto
            return
          </CharString>
          <CharString index="890">
            -39 -51 -33 27 -27 21 -4 hvcurveto
            -20 -5 -27 -18 -35 vvcurveto
            -59 45 -16 36 vhcurveto
            97 -1 rlineto
            49 hlineto
            21 8 14 23 3 hvcurveto
            return
          </CharString>
          <CharString index="891">
            -84 -58 -38 -63 -5 hvcurveto
            -66 -5 34 -33 71 hhcurveto
            38 31 9 19 24 hvcurveto
            -43 3 -30 -21 -63 hhcurveto
            -57 -40 21 43 -23 hvcurveto
            return
          </CharString>
          <CharString index="892">
            -75 251 callgsubr
            -1126 callsubr
            return
          </CharString>
          <CharString index="893">
            713 379 rmoveto
            -46 hlineto
            4 60 13 1 12 3 12 3 rlinecurve
            64 17 59 43 4 73 rrcurveto
            103 8 -51 51 -109 hhcurveto
            return
          </CharString>
          <CharString index="894">
            -826 callsubr
            -24 45 62 -9 69 hhcurveto
            63 61 13 31 64 hvcurveto
            71 38 33 70 761 callsubr
            return
          </CharString>
          <CharString index="895">
            -852 callsubr
            83 -702 callgsubr
            79 64 -180 callgsubr
            12 10 1 -5 2 -4 3 -5 rlinecurve
            return
          </CharString>
          <CharString index="896">
            -21 21 26 -11 33 hhcurveto
            54 47 21 43 40 hvcurveto
            44 45 25 462 callsubr
            25 -40 35 -16 vhcurveto
            return
          </CharString>
          <CharString index="897">
            -3 -39 15 -30 31 -21 27 -16 40 -7 53 1 41 3 33 10 24 17 31 19 16 28 1 35 2 24 -7 20 -15 16 return
          </CharString>
          <CharString index="898">
            70 -48 -21 237 68 22 48 46 71 87 54 hstemhm
            11 116 82 -372 callsubr
            -112 250 80 133 return
          </CharString>
          <CharString index="899">
            271 -173 54 115 69 -47 -21 184 736 callsubr
            63 -12 -292 callsubr
            231 93 117 107 -25 96 return
          </CharString>
          <CharString index="900">
            268 rmoveto
            35 vlineto
            179 -99 111 -201 return
          </CharString>
          <CharString index="901">
            151 13 hvcurveto
            33 vlineto
            65 -14 50 -29 33 vhcurveto
            return
          </CharString>
          <CharString index="902">
            -45 -3 -4 -107 -68 hhcurveto
            -37 -17 30 60 5 hvcurveto
            return
          </CharString>
          <CharString index="903">
            57 -7 47 -19 37 rrcurveto
            44 -21 -33 22 -43 hhcurveto
            return
          </CharString>
          <CharString index="904">
            -21 -3 -12 -11 -21 hhcurveto
            -25 -10 17 765 callgsubr
            return
          </CharString>
          <CharString index="905">
            -21 -10 -20 -13 -18 -16 -1034 callgsubr
            return
          </CharString>
          <CharString index="906">
            -1013 callsubr
            -7 hhcurveto
            return
          </CharString>
          <CharString index="907">
            -21 105 63 69 68 -8 60 54 72 96 54 hstemhm
            return
          </CharString>
          <CharString index="908">
            -30 21 471 callgsubr
            return
          </CharString>
          <CharString index="909">
            203 callsubr
            628 callsubr
            return
          </CharString>
          <CharString index="910">
            hhcurveto
            25 26 21 32 4 hvcurveto
            -100 201 rmoveto
            -48 return
          </CharString>
          <CharString index="911">
            -30 20 471 callgsubr
            return
          </CharString>
          <CharString index="912">
            60 -436 callgsubr
            return
          </CharString>
          <CharString index="913">
            -44 83 hhcurveto
            45 38 18 return
          </CharString>
          <CharString index="914">
            -531 callsubr
            -2 -15 return
          </CharString>
          <CharString index="915">
            -37 705 callgsubr
            return
          </CharString>
          <CharString index="916">
            -386 callsubr
            rrcurveto
            return
          </CharString>
          <CharString index="917">
            -4 -7 159 callsubr
            return
          </CharString>
          <CharString index="918">
            39 6 15 731 callsubr
            return
          </CharString>
          <CharString index="919">
            787 callgsubr
            53 return
          </CharString>
          <CharString index="920">
            -25 34 -47 hhcurveto
            -39 hlineto
            -2 -38 rlineto
            hintmask 1000000110000000
            1 3 5 1 9 hhcurveto
            13 6 -8 -15 hvcurveto
            -21 -2 -9 -11 -16 hhcurveto
            return
          </CharString>
          <CharString index="921">
            -927 callgsubr
            -294 callgsubr
            -15 rrcurveto
            120 hlineto
            40 71 21 63 5 59 rrcurveto
            return
          </CharString>
          <CharString index="922">
            -15 776 callgsubr
            8 -27 378 callgsubr
            -7 781 callsubr
            2 19 rrcurveto
            -1101 callsubr
            return
          </CharString>
          <CharString index="923">
            -17 -9 8 15 17 17 9 12 hvcurveto
            104 hlineto
            5 63 rlineto
            -113 hlineto
            -20 -4 6 11 15 418 callsubr
            252 hlineto
            return
          </CharString>
          <CharString index="924">
            rcurveline
            -11 -15 -14 -6 -16 3 rrcurveto
            -17 3 -11 10 23 vvcurveto
            4 3 29 9 57 vhcurveto
            -103 -80 rlineto
            -42 9 -29 18 -17 vhcurveto
            return
          </CharString>
          <CharString index="925">
            899 261 rmoveto
            4 56 -8 47 -19 37 -22 42 -32 648 callsubr
            -3 -43 rlineto
            return
          </CharString>
          <CharString index="926">
            42 -27 -42 -894 callgsubr
            -23 -21 -9 -39 3 -1026 callsubr
            return
          </CharString>
          <CharString index="927">
            5 57 rlineto
            -102 hlineto
            -4 -64 rlineto
            -48 -5 -17 -24 -29 hhcurveto
            -36 -29 64 777 callgsubr
            3 40 24 48 27 24 rrcurveto
            8 hlineto
            return
          </CharString>
          <CharString index="928">
            479 224 rmoveto
            -490 callgsubr
            rrcurveto
            39 20 42 20 40 17 -44 -87 -7 vhcurveto
            -848 callsubr
            return
          </CharString>
          <CharString index="929">
            64 hlineto
            71 145 34 -952 callgsubr
            -54 32 -113 -36 -5 -99 -8 -146 144 -42 89 97 return
          </CharString>
          <CharString index="930">
            263 callsubr
            200 77 184 110 return
          </CharString>
          <CharString index="931">
            vhcurveto
            138 hlineto
            -28 48 -13 56 4 48 rrcurveto
            52 4 22 35 25 hhcurveto
            41 -11 -60 -24 hvcurveto
            -6 -61 9 -43 25 -24 rrcurveto
            return
          </CharString>
          <CharString index="932">
            rmoveto
            -3 -43 -11 -23 -19 -2 rrcurveto
            -21 -1 -11 23 45 vvcurveto
            49 12 24 25 -1 vhcurveto
            21 -1 10 -24 -3 -46 rrcurveto
            endchar
          </CharString>
          <CharString index="933">
            62 -62 368 callgsubr
            189 42 64 102 return
          </CharString>
          <CharString index="934">
            -21 108 62 -62 108 25 71 -12 60 -43 167 -71 71 return
          </CharString>
          <CharString index="935">
            hhcurveto
            58 761 callgsubr
            34 hvcurveto
            3 3 9 -23 15 -16 20 -11 rlinecurve
            return
          </CharString>
          <CharString index="936">
            403 callsubr
            -23 -38 22 -55 hhcurveto
            return
          </CharString>
          <CharString index="937">
            hhcurveto
            -178 -96 -87 -173 -13 hvcurveto
            100 callsubr
            return
          </CharString>
          <CharString index="938">
            -10 29 hhcurveto
            20 16 4 7 13 hvcurveto
            11 6 7 7 1 7 rrcurveto
            return
          </CharString>
          <CharString index="939">
            19 -23 -31 10 -38 hhcurveto
            -65 -45 -17 -35 -25 hvcurveto
            -19 -27 -12 -37 return
          </CharString>
          <CharString index="940">
            69 -69 201 -181 -21 205 -438 callgsubr
            return
          </CharString>
          <CharString index="941">
            hlineto
            8 -15 3 -19 return
          </CharString>
          <CharString index="942">
            778 callsubr
            -37 hvcurveto
            return
          </CharString>
          <CharString index="943">
            -171 749 callsubr
            return
          </CharString>
          <CharString index="944">
            160 callsubr
            -13 return
          </CharString>
          <CharString index="945">
            hhcurveto
            57 761 callgsubr
            return
          </CharString>
          <CharString index="946">
            21 -21 605 -20 return
          </CharString>
          <CharString index="947">
            -400 -1 rlineto
            -1 return
          </CharString>
          <CharString index="948">
            378 callsubr
            11 return
          </CharString>
          <CharString index="949">
            54 -54 170 return
          </CharString>
          <CharString index="950">
            31 -19 48 hhcurveto
            return
          </CharString>
          <CharString index="951">
            45 -147 hhcurveto
            return
          </CharString>
          <CharString index="952">
            1 42 rlineto
            -92 hlineto
            -4 -52 -1 -19 -5 -16 -10 -15 rlinecurve
            -19 -11 -18 -9 -23 hhcurveto
            -25 -18 15 29 -13 hvcurveto
            -8 21 return
          </CharString>
          <CharString index="953">
            8 -7 -15 5 hvcurveto
            8 -17 3 -22 -3 -25 rrcurveto
            544 82 -354 callgsubr
            3 hvcurveto
            return
          </CharString>
          <CharString index="954">
            vvcurveto
            -21 vlineto
            -7 -1 -8 -1 -9 vhcurveto
            -135 -11 -44 -68 -79 hhcurveto
            -42 -20 19 37 2 hvcurveto
            -10 9 14 -5 21 hhcurveto
            return
          </CharString>
          <CharString index="955">
            -144 callsubr
            25 119 224 71 -71 207 206 119 return
          </CharString>
          <CharString index="956">
            43 -23 -33 22 -44 hhcurveto
            -362 313 callgsubr
            return
          </CharString>
          <CharString index="957">
            -21 237 68 22 48 46 71 87 54 hstemhm
            21 118 82 115 117 111 -111 248 80 135 return
          </CharString>
          <CharString index="958">
            27 4 -28 27 -29 hhcurveto
            -31 -20 -27 -27 -1 hvcurveto
            -27 -4 21 -19 29 hhcurveto
            29 29 19 27 1 hvcurveto
            -96 160 rmoveto
            return
          </CharString>
          <CharString index="959">
            -69 -66 -93 -8 hvcurveto
            -3 -65 21 -51 46 771 callgsubr
            45 57 -18 69 hhcurveto
            88 69 16 31 51 hvcurveto
            63 37 35 58 return
          </CharString>
          <CharString index="960">
            -378 callgsubr
            -598 callgsubr
            endchar
          </CharString>
          <CharString index="961">
            -173 54 119 69 -51 -21 return
          </CharString>
          <CharString index="962">
            188 callsubr
            -38 return
          </CharString>
          <CharString index="963">
            hstemhm
            284 93 132 143 return
          </CharString>
          <CharString index="964">
            -55 29 -114 -33 -3 -100 -11 return
          </CharString>
          <CharString index="965">
            -25 -25 696 callgsubr
            return
          </CharString>
          <CharString index="966">
            -61 -823 callsubr
            return
          </CharString>
          <CharString index="967">
            -367 callgsubr
            16 hvcurveto
            return
          </CharString>
          <CharString index="968">
            165 -64 64 -41 186 hstemhm
            return
          </CharString>
          <CharString index="969">
            -370 callgsubr
            endchar
          </CharString>
          <CharString index="970">
            -13 -14 -14 -6 return
          </CharString>
          <CharString index="971">
            239 -224 return
          </CharString>
          <CharString index="972">
            3 31 rlineto
            -820 callsubr
            -5 -14 175 callgsubr
            -15 -1055 callsubr
            7 114 return
          </CharString>
          <CharString index="973">
            -6 -84 19 -11 20 -10 21 -8 rlinecurve
            12 -4 13 -3 13 -2 -4 -60 rcurveline
            -128 callsubr
            return
          </CharString>
          <CharString index="974">
            -15 -15 0 -4 -16 vhcurveto
            -927 callsubr
            124 callsubr
            hvcurveto
            -16 -2 -16 -17 vvcurveto
            -104 -9 return
          </CharString>
          <CharString index="975">
            -871 callsubr
            -167 callsubr
            return
          </CharString>
          <CharString index="976">
            -270 callsubr
            25 4 35 5 -591 callgsubr
            return
          </CharString>
          <CharString index="977">
            48 -48 62 -62 120 -117 -20 152 32 12 111 -46 46 144 -20 hstemhm
            -291 232 -81 81 return
          </CharString>
          <CharString index="978">
            55 60 72 -2 198 -185 64 45 76 -119 callsubr
            90 144 -102 102 224 122 return
          </CharString>
          <CharString index="979">
            -65 callsubr
            endchar
          </CharString>
          <CharString index="980">
            -5 -73 39 -31 61 -1 694 callgsubr
            52 -58 83 31 27 65 12 28 11 51 5 75 rrcurveto
            endchar
          </CharString>
          <CharString index="981">
            332 callgsubr
            99 70 hstemhm
            return
          </CharString>
          <CharString index="982">
            210 -655 callsubr
            return
          </CharString>
          <CharString index="983">
            hhcurveto
            42 30 -18 -37 17 hvcurveto
            15 -30 6 -40 -3 -50 -5 -63 return
          </CharString>
          <CharString index="984">
            rmoveto
            -9 -119 -77 8 6 103 6 105 80 4 -6 -101 rrcurveto
            return
          </CharString>
          <CharString index="985">
            -1060 callgsubr
            -9 -9 1 -9 hhcurveto
            -40 return
          </CharString>
          <CharString index="986">
            564 callsubr
            99 60 -332 callgsubr
            return
          </CharString>
          <CharString index="987">
            -259 callgsubr
            231 -199 68 59 72 hstemhm
            return
          </CharString>
          <CharString index="988">
            8 5 7 6 7 7 rrcurveto
            190 hlineto
            6 76 rlineto
            -48 hlineto
            return
          </CharString>
          <CharString index="989">
            -851 callgsubr
            -14 76 -33 152 return
          </CharString>
          <CharString index="990">
            rlineto
            -35 -3 -22 408 callsubr
            return
          </CharString>
          <CharString index="991">
            10 -29 21 -24 rrcurveto
            -27 23 35 -13 47 hhcurveto
            return
          </CharString>
          <CharString index="992">
            229 -104 104 619 callsubr
            return
          </CharString>
          <CharString index="993">
            -12 26 -27 18 rrcurveto
            13 -23 -27 7 -29 hhcurveto
            return
          </CharString>
          <CharString index="994">
            -35 -4 29 381 callsubr
            29 25 36 hvcurveto
            return
          </CharString>
          <CharString index="995">
            rmoveto
            5 77 339 callgsubr
            return
          </CharString>
          <CharString index="996">
            -3 -51 rlineto
            -60 hlineto
            506 callsubr
            return
          </CharString>
          <CharString index="997">
            -987 callgsubr
            180 -294 callsubr
            return
          </CharString>
          <CharString index="998">
            67 328 69 -506 callsubr
            return
          </CharString>
          <CharString index="999">
            19 39 31 hvcurveto
            33 40 18 45 3 51 rrcurveto
            return
          </CharString>
          <CharString index="1000">
            170 callgsubr
            74 176 callsubr
            return
          </CharString>
          <CharString index="1001">
            hvcurveto
            -1 -5 -2 -431 callgsubr
            18 return
          </CharString>
          <CharString index="1002">
            hhcurveto
            55 373 callgsubr
            return
          </CharString>
          <CharString index="1003">
            -64 -839 callgsubr
            return
          </CharString>
          <CharString index="1004">
            -11 -1 -2 -10 hvcurveto
            -5 -72 7 1 return
          </CharString>
          <CharString index="1005">
            hvcurveto
            -15 5 -7 11 2 18 rrcurveto
            33 return
          </CharString>
          <CharString index="1006">
            -303 callgsubr
            hvcurveto
            return
          </CharString>
          <CharString index="1007">
            -955 callsubr
            20 69 return
          </CharString>
          <CharString index="1008">
            hhcurveto
            145 712 callgsubr
            hvcurveto
            return
          </CharString>
          <CharString index="1009">
            -3 -45 -16 -369 callgsubr
            return
          </CharString>
          <CharString index="1010">
            3 rlinecurve
            -27 3 -13 23 41 vvcurveto
            21 return
          </CharString>
          <CharString index="1011">
            -15 -5 -16 694 callsubr
            return
          </CharString>
          <CharString index="1012">
            hstemhm
            247 92 -92 112 return
          </CharString>
          <CharString index="1013">
            hhcurveto
            111 61 72 144 return
          </CharString>
          <CharString index="1014">
            31 39 42 13 39 hhcurveto
            19 return
          </CharString>
          <CharString index="1015">
            11 -19 hhcurveto
            -12 hlineto
            -8 hlineto
            return
          </CharString>
          <CharString index="1016">
            0 69 168 64 99 63 return
          </CharString>
          <CharString index="1017">
            rlineto
            308 hlineto
            35 16 -18 return
          </CharString>
          <CharString index="1018">
            vlineto
            -5 -385 callsubr
            return
          </CharString>
          <CharString index="1019">
            -9 8 15 16 17 9 return
          </CharString>
          <CharString index="1020">
            -9 -9 231 callgsubr
            return
          </CharString>
          <CharString index="1021">
            71 -51 -756 callgsubr
            return
          </CharString>
          <CharString index="1022">
            246 callsubr
            18 return
          </CharString>
          <CharString index="1023">
            347 callgsubr
            59 3 return
          </CharString>
          <CharString index="1024">
            rmoveto
            -983 callsubr
            -107 callgsubr
            return
          </CharString>
          <CharString index="1025">
            rmoveto
            -73 -27 -53 -43 -85 hhcurveto
            -106 callgsubr
            return
          </CharString>
          <CharString index="1026">
            -596 callgsubr
            -49 21 callsubr
            328 callgsubr
            73 38 28 68 12 21 rrcurveto
            return
          </CharString>
          <CharString index="1027">
            rmoveto
            -75 -27 -53 -42 -85 hhcurveto
            -105 callsubr
            return
          </CharString>
          <CharString index="1028">
            -56 -105 43 73 -8 callsubr
            -57 -89 callsubr
            return
          </CharString>
          <CharString index="1029">
            rmoveto
            -263 hlineto
            13 3 -86 callgsubr
            -34 rrcurveto
            -60 97 callsubr
            return
          </CharString>
          <CharString index="1030">
            3 31 rlineto
            -820 callsubr
            -4 -12 -25 -31 -1103 callsubr
            55 59 101 hhcurveto
            35 793 callgsubr
            11 hvcurveto
            32 -6 17 -13 2 -21 378 callgsubr
            -11 43 -16 28 -23 13 -15 721 callsubr
            -26 5 2 1 rcurveline
            31 41 40 13 40 hhcurveto
            20 20 -3 -7 21 -123 callgsubr
            -14 31 -6 23 rrcurveto
            1 -13 -11 1 -10 hhcurveto
            -30 -26 -13 -27 -22 hvcurveto
            -50 -73 -22 -39 -13 -15 -16 -5 -17 -121 callsubr
            2 18 8 27 vhcurveto
            return
          </CharString>
          <CharString index="1031">
            -477 callgsubr
            15 -21 -32 8 -43 hhcurveto
            -100 -53 -46 784 callsubr
            -3 -43 15 -28 35 -15 -39 780 callgsubr
            -3 -40 -3 -53 14 -39 31 -25 rrcurveto
            -21 24 33 -10 43 hhcurveto
            43 -540 callgsubr
            5 228 callgsubr
            209 callgsubr
            -14 -15 7 13 -16 755 callsubr
            -7 15 1 18 rrcurveto
            54 callsubr
            return
          </CharString>
          <CharString index="1032">
            rmoveto
            -1 -1 0 1 -1 hvcurveto
            -1 -864 callgsubr
            hhcurveto
            endchar
          </CharString>
          <CharString index="1033">
            -101 callgsubr
            rrcurveto
            -90 -8 67 -65 88 hhcurveto
            57 27 27 26 32 hvcurveto
            28 -39 31 -15 37 1 51 1 41 14 37 41 return
          </CharString>
          <CharString index="1034">
            626 callsubr
            -89 callgsubr
            return
          </CharString>
          <CharString index="1035">
            18 10 19 6 -1 callgsubr
            -951 callgsubr
            -12 -12 -736 callsubr
            -48 -73 -26 755 callgsubr
            -5 -5 -6 -3 rlinecurve
            return
          </CharString>
          <CharString index="1036">
            -69 -12 -124 -91 -63 -13 57 56 vhcurveto
            1 17 0 16 15 vvcurveto
            -2 -11 rlineto
            1 13 1 12 12 vvcurveto
            81 -21 59 -43 36 vhcurveto
            23 -28 -37 11 -47 -246 callgsubr
            -1 -9 242 callsubr
            2 123 callgsubr
            24 4 rlineto
            -590 callsubr
            -69 -12 -123 -90 -63 -14 58 54 376 callgsubr
            -1 0 -1 -1 vvcurveto
            1 3 0 3 3 vvcurveto
            18 vlineto
            125 -53 68 -106 13 vhcurveto
            4 4 31 27 9 15 21 16 rlinecurve
            23 34 32 11 30 hhcurveto
            10 10 -1 790 callgsubr
            28 -9 386 callgsubr
            -19 34 rlinecurve
            -20 41 -15 27 -11 11 rrcurveto
            3 -9 -8 1 -8 hhcurveto
            -42 -34 -19 -38 -27 hvcurveto
            -52 -94 -8 -12 -7 -13 -5 -13 rlinecurve
            -9 -15 -14 -5 -18 4 631 callgsubr
            1 -502 callgsubr
            -180 70 callsubr
            return
          </CharString>
          <CharString index="1037">
            -100 -8 53 -59 99 -54 callsubr
            return
          </CharString>
          <CharString index="1038">
            60 callsubr
            56 60 105 hhcurveto
            55 39 -8 -16 790 callsubr
            -21 12 -38 -55 vvcurveto
            -17 vlineto
            -6 0 -7 -1 -7 vhcurveto
            return
          </CharString>
          <CharString index="1039">
            1 3 1 4 5 vvcurveto
            92 7 -58 50 -93 -71 callsubr
            return
          </CharString>
          <CharString index="1040">
            -7 21 -2 348 callsubr
            -135 hlineto
            -3 -567 callgsubr
            43 65 -22 85 hhcurveto
            47 47 12 25 47 hvcurveto
            58 30 31 42 3 53 11 callsubr
            return
          </CharString>
          <CharString index="1041">
            -51 16 50 -23 55 hhcurveto
            147 60 18 callsubr
            61 -12 47 -23 34 hvcurveto
            -1081 callgsubr
            -70 -12 -123 -88 -64 -19 58 55 -4 hvcurveto
            -2 21 rlineto
            87 5 -37 44 -78 hhcurveto
            -69 -43 -43 -53 -4 hvcurveto
            -1 775 callgsubr
            19 -18 rrcurveto
            -14 17 20 -7 23 hhcurveto
            11 12 3 5 12 hvcurveto
            -217 callgsubr
            -19 -15 -682 callgsubr
            -8 17 792 callsubr
            21 rrcurveto
            return
          </CharString>
          <CharString index="1042">
            43 -50 57 -78 callsubr
            return
          </CharString>
          <CharString index="1043">
            67 82 59 108 51 28 69 87 126 hstem
            729 95 55 100 62 142 vstem
            -841 callsubr
            10 hlineto
            26 hlineto
            23 24 -1 19 hhcurveto
            18 hlineto
            17 -3 12 -12 8 -22 rrcurveto
            -33 -926 callgsubr
            -2 -27 -3 -49 26 -39 37 -13 25 -10 27 1 28 13 rrcurveto
            -22 callsubr
            60 -865 callsubr
            1 rlineto
            23 21 82 callsubr
            61 -51 74 hhcurveto
            92 3 74 81 114 vvcurveto
            -608 callsubr
            -447 callgsubr
            -7 -6 0 -7 hhcurveto
            -11 -1000 callsubr
            -13 -123 -89 -66 -3 58 54 2 hvcurveto
            3 41 -592 callsubr
            rlinecurve
            -7 55 -29 37 -52 18 -18 3 -15 2 -13 1 -12 2 rcurveline
            13 14 12 13 14 14 17 13 rlinecurve
            23 -109 callsubr
            19 -214 callsubr
            -13 19 -17 32 -22 42 -15 26 -8 -785 callsubr
            -52 -93 -8 -12 -7 -14 -5 -13 rlinecurve
            -11 -14 -14 -6 -18 -631 callsubr
            7 57 vhcurveto
            return
          </CharString>
          <CharString index="1044">
            173 372 callgsubr
            rrcurveto
            -7 15 18 -4 21 hhcurveto
            11 -341 callgsubr
            52 hlineto
            12 728 callsubr
            11 437 callgsubr
            -32 hhcurveto
            -39 -15 49 765 callgsubr
            return
          </CharString>
          <CharString index="1045">
            -74 callsubr
            5 -620 callgsubr
            -5 -20 rcurveline
            return
          </CharString>
          <CharString index="1046">
            33 callsubr
            -91 callgsubr
            return
          </CharString>
</ttFont>
